<svg width="77" height="102" viewBox="0 0 77 102" fill="none" xmlns="http://www.w3.org/2000/svg">
<path d="M71 93L7.5 93L7.50001 -5.55135e-06" stroke="white"/>
<path d="M4.49684 76.1025C4.35913 76.5218 4.20991 76.8962 4.05452 77.2139C3.89811 77.5314 3.72484 77.7832 3.55836 77.9629C3.39517 78.1516 3.21944 78.2264 3.10372 78.2744C2.98184 78.3002 2.91442 78.3085 2.91442 78.3085C2.91442 78.3085 2.98122 78.3048 3.10639 78.2863C3.22519 78.2462 3.40997 78.1801 3.58652 77.9984C3.76616 77.8256 3.9571 77.5788 4.13242 77.266C4.30713 76.9529 4.47833 76.5822 4.63968 76.1659C5.28074 74.4949 5.77259 72.1284 6.11789 69.7478C6.12549 69.6953 6.13206 69.643 6.13946 69.5902C6.15817 69.8593 6.17708 70.1325 6.19538 70.3986C6.24614 71.043 6.2963 71.6796 6.34562 72.3076C6.56061 74.8135 6.76368 77.1828 6.95113 79.3694C7.06191 80.4616 7.12563 81.512 7.20907 82.5095C7.28142 83.508 7.37781 84.4544 7.45509 85.3451C7.61212 87.1262 7.72434 88.6845 7.84993 89.9664C8.08567 92.5313 8.27786 94 8.27786 94L8.52347 93.9982C8.52347 93.9982 8.67391 92.5274 8.83649 89.9475C8.88212 89.3027 8.91933 88.5885 8.96085 87.8107C9.00298 87.0327 9.05579 86.1913 9.06566 85.2914C9.11026 83.4919 9.14871 81.4592 9.14069 79.2415C9.11048 77.1496 9.06011 74.8882 8.9409 72.517L9.12157 72.5675L9.30122 72.9534L9.68721 72.9999L9.9135 73.3536L10.3013 73.3367L10.5712 73.6491L10.9525 73.568L11.261 73.8321L11.6277 73.6895L11.9668 73.9014L12.3127 73.7035L12.6736 73.8639L12.9949 73.6192L13.37 73.7316L13.6655 73.4492L14.0487 73.5185L14.3196 73.2066L14.707 73.2381L14.9549 72.9027L15.3435 72.9022L15.5704 72.5486L16 72.4477L15.6115 72.2235L15.4749 71.8144L15.0985 71.7001L14.9349 71.3034L14.5522 71.2202L14.3625 70.8382L13.9751 70.7889L13.7576 70.4258L13.3677 70.4155L13.1205 70.0777L12.7316 70.1127L12.4519 69.8082L12.07 69.8957L11.7567 69.6354L11.3897 69.7826L11.045 69.578L10.7036 69.789L10.3334 69.651L10.0286 69.9238L9.64343 69.8577L9.38301 70.1832L8.99312 70.1871L8.83198 70.4634C8.82704 70.3655 8.8217 70.2708 8.81636 70.1729C8.77566 69.5282 8.73414 68.8756 8.69221 68.2157C8.59808 66.8986 8.50209 65.5529 8.40426 64.1847C8.35555 63.5016 8.30622 62.8125 8.25668 62.1186C8.20694 61.4242 8.15125 60.7257 8.11672 60.0228C8.03553 58.6163 7.95394 57.1927 7.8711 55.7576C7.78889 54.314 7.70565 52.8589 7.6222 51.3983C7.51902 49.9383 7.41564 48.4724 7.31226 47.0065C7.15215 44.0739 7.00951 41.1344 7.04732 38.2447C7.07199 36.8002 7.1174 35.3672 7.20023 33.9537C7.20948 33.7701 7.22387 33.5883 7.236 33.4052L7.30116 33.4736L7.29499 33.7971L7.53217 33.9807L7.56876 34.3016L7.82794 34.4442L7.90666 34.7557L8.18167 34.8543L8.29902 35.1494L8.58369 35.2047L8.73476 35.4805L9.02313 35.4952L9.20153 35.7496L9.48969 35.7298L9.69029 35.9625L9.97578 35.912L10.1939 36.1249L10.4746 36.0493L10.706 36.2429L10.9819 36.1461L11.2774 36.3009L11.1356 35.9733L11.217 35.6618L11.0386 35.4054L11.099 35.0877L10.9042 34.8465L10.9432 34.5244L10.7324 34.3012L10.7472 33.9768L10.5196 33.7757L10.5069 33.4508L10.2617 33.2776L10.2163 32.9562L9.9542 32.8175L9.87157 32.5055L9.59431 32.4097L9.47037 32.1155L9.18324 32.0706L9.01778 31.8033L8.72798 31.8137L8.52512 31.5815L8.24065 31.6448L8.00697 31.4522L7.73422 31.5633L7.47853 31.4103L7.40412 31.4536C7.45818 30.8919 7.51059 30.3332 7.57267 29.7796C7.64707 29.0961 7.72106 28.418 7.79423 27.7462C7.87357 27.0749 7.95229 26.4093 8.02977 25.7516C8.17755 24.4358 8.30704 23.1471 8.40221 21.8827C8.61041 19.3625 8.64885 16.9582 8.69531 14.744C8.71257 13.1223 8.68729 11.5983 8.6542 10.1916C8.66345 10.1519 8.6727 10.1128 8.68195 10.0731L8.80588 9.66052C8.84452 9.52022 8.89282 9.38567 8.94544 9.25366C8.99805 9.12165 9.04183 8.98319 9.10143 8.85717C9.16104 8.73022 9.22024 8.60422 9.2784 8.48003C9.3376 8.3554 9.41118 8.24503 9.47531 8.12823C9.53841 8.00981 9.61096 7.90361 9.68639 7.80386C9.76285 7.70525 9.82574 7.59235 9.90919 7.51011C9.98914 7.42187 10.0668 7.33594 10.1419 7.25323C10.222 7.17721 10.3057 7.11293 10.3834 7.04497C10.4228 7.01248 10.4602 6.977 10.4999 6.94865C10.541 6.924 10.5813 6.89912 10.6203 6.8754C10.6999 6.82725 10.7753 6.78186 10.846 6.73855C10.9973 6.68279 11.1301 6.62197 11.2431 6.58994C11.4754 6.54801 11.6081 6.52383 11.6081 6.52383C11.6081 6.52383 11.4723 6.5266 11.2345 6.53143C11.1161 6.54549 10.9745 6.58442 10.808 6.61874C10.7289 6.65123 10.645 6.68626 10.5562 6.7222C10.5114 6.74109 10.4656 6.76044 10.4185 6.77979C10.3731 6.80329 10.3297 6.83277 10.2837 6.86042C10.1934 6.91801 10.0946 6.97331 9.999 7.04082C9.90795 7.11639 9.81382 7.19379 9.71701 7.27396C9.61506 7.34952 9.53511 7.45482 9.43913 7.54835C9.34438 7.64374 9.25189 7.74533 9.16906 7.85937C9.08479 7.97134 8.98983 8.08032 8.90987 8.20219C8.83033 8.32499 8.75017 8.44963 8.66899 8.57473C8.64967 8.6049 8.63281 8.63715 8.61493 8.66825C8.59499 7.77459 8.53786 6.9452 8.49203 6.17594C8.44126 5.40024 8.39317 4.68835 8.33849 4.04488C8.142 1.47147 7.949 0.000930082 7.949 0.000930082L7.70338 -7.25314e-07C7.70338 -7.25314e-07 7.50463 1.46917 7.29766 4.0412C7.24073 4.6842 7.18955 5.39609 7.13549 6.17088C7.08267 6.9452 7.03993 7.78634 6.96861 8.67539C6.83357 10.4572 6.7347 12.4632 6.60706 14.6532C6.53944 15.7485 6.47162 16.8891 6.41428 18.0703C6.39968 18.3493 6.38488 18.6377 6.37008 18.9211L6.25662 18.8289L5.98594 18.9451L5.72594 18.8006L5.47642 18.9663L5.19833 18.8732L4.97656 19.0828L4.68922 19.0404L4.49807 19.2849L4.20806 19.2886L4.04754 19.5595L3.7602 19.6028L3.62764 19.8917L3.34584 19.9682L3.23876 20.2702L2.96417 20.3746L2.8799 20.6861L2.61332 20.8139L2.55001 21.1312L2.29269 21.2809L2.25097 21.6023L2.00001 21.8336L2.32618 21.8309L2.54097 22.0481L2.82358 21.9797L3.0507 22.1794L3.32797 22.0882L3.56864 22.2672L3.83749 22.1493L4.09193 22.3022L4.34885 22.1546L4.61687 22.2755L4.85653 22.0956L5.13564 22.1783L5.35228 21.964L5.6392 22.0032L5.82624 21.7567L6.1146 21.7486L6.25662 21.4927C6.25375 21.5744 6.24923 21.6542 6.24696 21.7366C6.20586 22.9943 6.19517 24.296 6.1999 25.629C6.20586 26.9599 6.22477 28.3213 6.26567 29.708C6.31068 32.4784 6.38714 35.3331 6.30349 38.2304C6.29383 38.5921 6.28396 38.9552 6.2743 39.319C6.26793 39.6825 6.26156 40.0465 6.25539 40.411C6.23916 41.1404 6.21676 41.8716 6.18983 42.6045C6.15674 43.3376 6.12323 44.0723 6.09014 44.8074C6.04903 45.543 6.00773 46.2796 5.96621 47.0159C5.8507 49.9759 5.68072 52.9004 5.69367 55.8097C5.70703 57.2667 5.72058 58.7123 5.73374 60.1403C5.73579 60.8554 5.75533 61.564 5.78266 62.2667C5.80692 62.9701 5.83096 63.6682 5.85501 64.3607C5.86899 64.7035 5.87824 65.0459 5.88955 65.3861C5.84638 66.7235 5.76643 68.2005 5.62893 69.6734C5.40983 72.0491 5.04315 74.4189 4.49684 76.1025ZM9.05499 71.2981C9.23997 71.3598 9.43008 71.4305 9.62657 71.4879C9.72481 71.5181 9.82348 71.5485 9.92254 71.5791C10.0224 71.6068 10.1229 71.6342 10.2232 71.6618C10.3239 71.6883 10.4245 71.7183 10.525 71.742C10.6261 71.7655 10.7264 71.7888 10.8263 71.812C11.0256 71.8618 11.224 71.8957 11.4153 71.9325C11.6071 71.9724 11.7935 71.9961 11.9707 72.0222C12.0593 72.0348 12.1456 72.0475 12.2289 72.0592C12.3125 72.0673 12.3935 72.0749 12.4712 72.0825C12.6268 72.0966 12.7694 72.1125 12.896 72.121C13.023 72.1263 13.1336 72.1309 13.2249 72.1348C13.4078 72.1422 13.5118 72.1466 13.5118 72.1466C13.5118 72.1466 13.4076 72.1544 13.2251 72.1678C13.1338 72.1742 13.0228 72.1825 12.8954 72.192C12.768 72.1979 12.6243 72.1986 12.4669 72.2023C12.3883 72.2039 12.3063 72.2053 12.2214 72.2072C12.1368 72.2046 12.049 72.2023 11.959 72.1998C11.7787 72.1943 11.5878 72.192 11.3915 72.1742C11.1948 72.1595 10.9907 72.1479 10.785 72.121C10.6816 72.1092 10.5776 72.0973 10.473 72.0855C10.3685 72.0733 10.2643 72.0549 10.1599 72.0397C10.0551 72.0235 9.9507 72.0072 9.8467 71.9911C9.74311 71.9717 9.63952 71.9524 9.53716 71.9332C9.33121 71.8978 9.13144 71.8484 8.93639 71.8067C8.92549 71.8042 8.91501 71.8017 8.90432 71.7991C8.89425 71.6118 8.88377 71.4211 8.8739 71.2324C8.93392 71.2538 8.99333 71.2759 9.05499 71.2981ZM7.60186 32.1445C7.68736 32.2738 7.77245 32.4108 7.86679 32.5431C7.91324 32.6101 7.9599 32.6776 8.00697 32.7451C8.05547 32.8117 8.10419 32.8778 8.1531 32.9444C8.20243 33.0105 8.25011 33.0785 8.30067 33.1428C8.35164 33.2071 8.402 33.2716 8.45236 33.3349C8.55102 33.4642 8.65542 33.5833 8.7551 33.7012C8.85314 33.821 8.95489 33.9284 9.04985 34.0321C9.09753 34.0839 9.14399 34.1346 9.18879 34.1832C9.23565 34.23 9.28045 34.2749 9.32361 34.3182C9.41055 34.4041 9.48927 34.4852 9.56121 34.5534C9.63459 34.62 9.69852 34.6776 9.75134 34.7258C9.85699 34.8216 9.91741 34.8764 9.91741 34.8764C9.91741 34.8764 9.85246 34.8287 9.7386 34.746C9.68166 34.7041 9.61239 34.6539 9.53285 34.5954C9.45433 34.5355 9.36863 34.464 9.27347 34.3876C9.2262 34.3493 9.17666 34.3092 9.12528 34.2678C9.07595 34.2242 9.02456 34.1786 8.97194 34.1323C8.86691 34.0392 8.75408 33.9425 8.64453 33.8335C8.53355 33.7263 8.41659 33.6174 8.30478 33.4987C8.24806 33.4397 8.19071 33.3812 8.13357 33.3213C8.07643 33.2619 8.02176 33.199 7.96565 33.1377C7.90995 33.0755 7.85404 33.014 7.79855 32.9523C7.74449 32.8889 7.69085 32.8258 7.63741 32.7629C7.5293 32.6392 7.42982 32.5095 7.33014 32.3876C7.32623 32.3823 7.32294 32.3777 7.31862 32.3728C7.33445 32.1987 7.34863 32.0236 7.36672 31.8499C7.36918 31.8248 7.37145 31.7994 7.37392 31.7738C7.44503 31.8934 7.52149 32.0171 7.60186 32.1445ZM6.19312 20.5068C6.11913 20.5361 6.04431 20.5681 5.97011 20.5951C5.89612 20.622 5.8211 20.649 5.74793 20.6762C5.60221 20.7324 5.45505 20.7766 5.31425 20.822C5.17408 20.8697 5.03555 20.9047 4.90524 20.9409C4.84029 20.9584 4.77678 20.9759 4.71533 20.9927C4.65346 21.0063 4.59344 21.0197 4.5363 21.0328C4.4212 21.0575 4.317 21.0823 4.22348 21.1008C4.12955 21.1164 4.04775 21.13 3.98034 21.1413C3.84592 21.1634 3.76904 21.1763 3.76904 21.1763C3.76904 21.1763 3.84427 21.1547 3.97602 21.1169C4.04159 21.0985 4.12154 21.0754 4.21279 21.0489C4.30364 21.0206 4.40517 20.9837 4.51636 20.946C4.57165 20.9271 4.62941 20.9073 4.68902 20.8865C4.74801 20.863 4.80884 20.8388 4.87174 20.8142C4.9967 20.7637 5.12906 20.7137 5.26266 20.6508C5.39667 20.5905 5.53603 20.5308 5.67394 20.4591C5.74321 20.425 5.81309 20.3903 5.88318 20.3557C5.95326 20.3207 6.02171 20.2811 6.09138 20.2442C6.16024 20.2069 6.22929 20.1691 6.29815 20.1313C6.30329 20.1285 6.30863 20.1256 6.31357 20.1223C6.30863 20.2352 6.30493 20.3513 6.3002 20.4647C6.26383 20.478 6.22827 20.4926 6.19312 20.5068Z" fill="white"/>
<path d="M24.3333 89.7664C24.2657 89.892 24.1988 90.0165 24.1327 90.1395C24.0651 90.2624 24.0184 90.3916 23.9615 90.5153C23.8449 90.7619 23.7676 91.0121 23.6861 91.2481C23.6425 91.3714 23.6102 91.4932 23.5806 91.612C21.8905 91.7578 20.2861 91.896 18.7991 92.0242C17.9977 92.107 17.2228 92.1524 16.4903 92.2139C15.7578 92.2667 15.0546 92.3387 14.401 92.3957C13.094 92.5118 11.934 92.5935 10.9935 92.6871C9.11149 92.8618 8 93.0073 8 93.0073L8 93.2025C8 93.2025 9.11099 93.3292 11.0017 93.471C11.4745 93.5104 12.031 93.5434 12.6014 93.5801C13.1714 93.6175 13.7882 93.6636 14.4479 93.6758C15.7672 93.7197 17.2571 93.7604 18.8835 93.7647C20.5088 93.75 22.2728 93.7191 24.1258 93.6237C24.5895 93.5997 25.0593 93.5755 25.5348 93.5509C26.008 93.5216 26.4868 93.4919 26.9709 93.4619C27.9372 93.3936 28.9247 93.3237 29.9289 93.2526C30.3653 93.2218 30.8061 93.1906 31.2489 93.1591L31.2294 93.3221L31.0201 93.5298L31.0288 93.7591L30.8436 93.9846L30.8901 94.197L30.7334 94.4357L30.8163 94.627L30.69 94.8736L30.8056 95.041L30.7098 95.2902L30.853 95.4334L30.7856 95.6814L30.951 95.8016L30.9087 96.0459L31.0921 96.1452L31.072 96.3841L31.2691 96.465L31.2681 96.698L31.4757 96.7627L31.5338 97L31.6673 96.7212L31.9091 96.5561L31.9779 96.307L32.2123 96.1282L32.2628 95.8814L32.4888 95.69L32.5193 95.4473L32.7341 95.2432L32.7415 95.007L32.9416 94.79L32.9225 94.5638L33.1031 94.334L33.0525 94.1223L33.2075 93.8814L33.1216 93.6908L33.2434 93.4424L33.1201 93.2801L33.2021 93.0315C34.1632 92.9779 35.1341 92.9237 36.1129 92.8692C37.1719 92.8107 38.2395 92.7518 39.311 92.6925C40.3824 92.6177 41.4577 92.5425 42.5332 92.4674C44.6847 92.3544 46.841 92.2554 48.9599 92.2994C50.0191 92.3258 51.0696 92.3688 52.1056 92.4414C52.6238 92.473 53.1379 92.5226 53.6477 92.5832C54.1576 92.6415 54.6637 92.6933 55.1648 92.7575C55.6658 92.8199 56.1625 92.8821 56.6546 92.9435C57.1467 93.0098 57.6341 93.0755 58.1166 93.1405C59.0805 93.2644 60.0252 93.3735 60.9515 93.4552C62.1985 93.575 63.4055 93.6329 64.5588 93.6727L64.3264 93.7534L64.2458 94.0532L63.9618 94.1919L63.9163 94.4986L63.6484 94.6652L63.6332 94.9748L63.3819 95.164L63.3931 95.4738L63.1577 95.6817L63.1927 95.9897L62.9735 96.2136L63.0319 96.5179L62.8453 96.8135L63.1823 96.698L63.4733 96.8192L63.744 96.6598L64.0426 96.7616L64.3006 96.583L64.6067 96.6609L64.8476 96.4614L65.1596 96.5112L65.3788 96.2891L65.6947 96.3054L65.886 96.0599L66.2012 96.0381L66.3578 95.7699L66.667 95.7057L66.7828 95.4187L67.0789 95.3111L67.1497 95.0106L67.4261 94.8615L67.4509 94.5538L67.7024 94.3671L67.6826 94.0593L67.9057 93.8406L67.8837 93.7325C68.8605 93.7277 69.7778 93.7073 70.6231 93.6892C71.2845 93.6783 71.8978 93.6361 72.467 93.6033C73.0358 93.5666 73.5585 93.5318 74.0305 93.4916C75.9185 93.348 76.998 93.2017 76.998 93.2017L77 93.0065C77 93.0065 75.9237 92.8414 74.0388 92.6645C73.5677 92.6162 73.0458 92.5721 72.4778 92.5254C71.9102 92.4795 71.2938 92.4416 70.6421 92.3805C69.3362 92.2644 67.8652 92.1764 66.2601 92.0645C65.4571 92.0052 64.6209 91.9458 63.7552 91.8947C63.3218 91.8675 62.881 91.8401 62.4334 91.8122C62.388 91.8096 62.3409 91.8079 62.2952 91.8053C62.841 91.5229 63.6172 91.2832 64.4035 91.1151C65.2927 90.9216 66.2044 90.8094 66.8897 90.7519C67.2324 90.7219 67.519 90.705 67.7198 90.6941C67.9205 90.6848 68.0353 90.6792 68.0353 90.6792C68.0353 90.6792 67.9204 90.6756 67.7193 90.669C67.5181 90.6639 67.2305 90.6578 66.8849 90.6606C66.1938 90.6636 65.2704 90.7026 64.3502 90.827C63.4304 90.9502 62.5132 91.1556 61.8498 91.4836C61.6835 91.5652 61.532 91.6587 61.4041 91.7611C61.2911 91.756 61.1812 91.7485 61.0672 91.7442C60.1452 91.7054 59.1905 91.6905 58.2133 91.6881C57.2372 91.6863 56.239 91.6948 55.222 91.7206C53.1901 91.7428 51.0967 91.7896 48.9729 91.7093C48.7072 91.6998 48.4413 91.6903 48.1748 91.681C47.9084 91.6742 47.6414 91.6673 47.374 91.6606C46.8394 91.644 46.3034 91.6231 45.7659 91.5981C45.2285 91.5679 44.6901 91.5381 44.1512 91.5081C43.6119 91.4718 43.0721 91.4354 42.5324 91.399C40.3628 91.2928 38.2191 91.1437 36.0858 91.1398C35.0173 91.1434 33.9574 91.1471 32.9103 91.1509C32.3859 91.1489 31.8664 91.161 31.3511 91.1793C30.8352 91.1952 30.3229 91.211 29.8149 91.2267C29.7072 91.2308 29.6001 91.2334 29.4924 91.2363C29.3985 91.1066 29.2958 90.968 29.1706 90.8403C29.101 90.7643 29.0286 90.6853 28.9533 90.6035C28.8709 90.5291 28.7854 90.4521 28.6979 90.3729C28.5301 90.2081 28.3171 90.0746 28.1157 89.9208C27.8942 89.7918 27.677 89.6446 27.4305 89.5393C27.1948 89.4161 26.9359 89.3335 26.6851 89.2415C26.4239 89.1747 26.1689 89.098 25.9076 89.0663C25.7445 89.0333 25.5807 89.0211 25.4199 89.0113C25.4271 89.0002 25.4336 88.9887 25.4409 88.9775C25.5216 88.8711 25.6021 88.7651 25.6817 88.6598C25.7573 88.5499 25.8566 88.4635 25.9419 88.3648L26.0739 88.2219C26.1198 88.1769 26.1694 88.1369 26.2166 88.0942C26.3132 88.0126 26.4027 87.9232 26.5014 87.8506C26.6023 87.7798 26.7005 87.7108 26.7967 87.6435C26.8901 87.5705 26.9977 87.5287 27.0932 87.4717C27.1919 87.4214 27.2828 87.36 27.3815 87.3279C27.5747 87.2553 27.7491 87.1715 27.9166 87.1401C28.0815 87.1017 28.2248 87.0521 28.3477 87.0461C28.593 87.0168 28.7332 87 28.7332 87C28.7332 87 28.5915 87.0016 28.3436 87.0042C28.2177 86.9972 28.07 87.0309 27.8968 87.0521C27.721 87.0663 27.5353 87.1311 27.3256 87.1854C27.2187 87.2082 27.1193 87.2603 27.0102 87.3016C26.9046 87.3495 26.7852 87.3831 26.6798 87.4477C26.571 87.5076 26.4589 87.5692 26.3448 87.6319C26.2317 87.6974 26.1275 87.7798 26.0149 87.8559C25.96 87.8956 25.9019 87.933 25.8477 87.9757C25.7957 88.0206 25.7433 88.0658 25.6908 88.1114C25.5887 88.2055 25.4709 88.2894 25.3775 88.3962C25.2793 88.4996 25.1806 88.6038 25.0812 88.7086C25.0009 88.8035 24.9249 88.903 24.8476 89.0016C24.7071 89.0046 24.5706 89.0096 24.4397 89.0325C24.3288 89.0465 24.2209 89.0604 24.1166 89.0737C24.0142 89.0967 23.9154 89.1189 23.8203 89.1404C23.6299 89.1765 23.4624 89.2358 23.3147 89.2863C23.2409 89.311 23.1718 89.3341 23.1079 89.3554C23.0465 89.3828 22.9899 89.4081 22.9389 89.4307C22.7364 89.5216 22.621 89.5736 22.621 89.5736C22.621 89.5736 22.743 89.5388 22.9561 89.4782C23.009 89.4632 23.0677 89.4467 23.1315 89.4285C23.1971 89.4168 23.2677 89.4042 23.3436 89.3905C23.4942 89.3626 23.6627 89.3289 23.8509 89.3209C23.944 89.3137 24.0408 89.3061 24.1409 89.2982C24.2413 89.3 24.3452 89.3018 24.4516 89.3039C24.508 89.3021 24.5652 89.3043 24.6229 89.3083C24.6025 89.3394 24.5819 89.3702 24.5617 89.4013C24.4859 89.5239 24.3961 89.6394 24.3333 89.7664ZM67.1546 93.845C67.0905 93.8987 67.0256 93.953 66.9606 94.0072C66.8942 94.0598 66.8275 94.1127 66.7607 94.1656C66.6934 94.2177 66.6279 94.2716 66.5598 94.3219C66.4915 94.3722 66.4234 94.422 66.356 94.4717C66.2228 94.5726 66.0847 94.6634 65.9534 94.7532C65.8234 94.8448 65.6912 94.9245 65.5676 95.002C65.5058 95.0407 65.4456 95.0781 65.3874 95.1143C65.3276 95.1481 65.2699 95.181 65.2145 95.2123C65.1036 95.2745 65.0032 95.3333 64.912 95.382C64.8198 95.4287 64.7393 95.4692 64.6733 95.5027C64.5411 95.5695 64.4656 95.6075 64.4656 95.6075C64.4656 95.6075 64.5367 95.5621 64.6612 95.4824C64.7233 95.4428 64.7986 95.3944 64.8852 95.3392C64.9704 95.2821 65.0638 95.2136 65.1668 95.1413C65.2182 95.1047 65.2716 95.067 65.3271 95.0278C65.3807 94.9861 65.4361 94.9432 65.4931 94.8991C65.6069 94.8105 65.7279 94.7196 65.8465 94.6167C65.9663 94.5156 66.0916 94.4135 66.2119 94.3013C66.2726 94.2463 66.334 94.1909 66.3955 94.1352C66.4569 94.0794 66.5154 94.0203 66.5757 93.9629C66.6352 93.9049 66.6948 93.847 66.754 93.7893C66.7726 93.7702 66.7908 93.7514 66.8094 93.7325C66.9693 93.7338 67.1273 93.7344 67.2846 93.7348C67.2414 93.7714 67.1991 93.8088 67.1546 93.845ZM32.0664 93.1746C32.0496 93.2401 32.0332 93.3059 32.0167 93.3717C32.0008 93.4375 31.983 93.5037 31.9687 93.569C31.9544 93.6343 31.9404 93.6993 31.9263 93.764C31.8964 93.8938 31.8755 94.0198 31.853 94.1424C31.8288 94.2654 31.8144 94.3823 31.7985 94.494C31.7906 94.5499 31.7831 94.6041 31.7757 94.6567C31.7707 94.7086 31.7659 94.7588 31.7612 94.8068C31.7525 94.903 31.7424 94.9918 31.7369 95.0697C31.7334 95.147 31.7304 95.2144 31.7277 95.2698C31.7227 95.381 31.7197 95.4445 31.7197 95.4445C31.7197 95.4445 31.7155 95.3836 31.7083 95.2768C31.7048 95.2233 31.7001 95.1583 31.6953 95.0838C31.6919 95.0087 31.6921 94.9223 31.6904 94.8287C31.6897 94.7818 31.6891 94.7328 31.6884 94.6823C31.6901 94.6311 31.6919 94.578 31.6936 94.5233C31.6973 94.414 31.6993 94.299 31.7107 94.1774C31.72 94.0563 31.7276 93.9316 31.7439 93.8025C31.7511 93.738 31.7587 93.6734 31.766 93.6084C31.7736 93.5432 31.7848 93.477 31.794 93.4112C31.804 93.3453 31.8137 93.2791 31.8238 93.2133C31.8296 93.1813 31.8351 93.1494 31.841 93.1174C31.9231 93.1114 32.0048 93.1055 32.0873 93.0996C32.0804 93.1244 32.0736 93.1494 32.0664 93.1746ZM24.7212 90.3828C24.7688 90.2641 24.8169 90.1439 24.8654 90.0227C24.9094 89.8987 24.9793 89.7869 25.0359 89.6667C25.0842 89.5697 25.1341 89.4726 25.1905 89.3795C25.3908 89.4225 25.5962 89.4578 25.7953 89.5301C26.0254 89.5915 26.2441 89.6961 26.4638 89.7862C26.6734 89.9015 26.8867 90.0038 27.0743 90.1413C27.2726 90.261 27.4387 90.4174 27.6089 90.5509C27.7588 90.7088 27.9199 90.8414 28.0375 91.0006C28.0996 91.0761 28.1602 91.1493 28.2187 91.2201C28.2333 91.2422 28.2469 91.2623 28.2612 91.2838C27.7795 91.3124 27.3015 91.3405 26.829 91.3684C26.3426 91.4016 25.8609 91.4346 25.3854 91.4671C25.0558 91.4931 24.7325 91.5184 24.4083 91.544C24.4151 91.5069 24.4215 91.47 24.4304 91.4328C24.48 91.2125 24.5234 90.9762 24.6042 90.7423C24.6435 90.6247 24.6721 90.5002 24.7212 90.3828Z" fill="white"/>
<path d="M8.51127 95.7928C8.61417 95.7262 8.69955 95.662 8.66337 95.496C8.60417 95.2231 8.57534 94.9439 8.54695 94.6665C8.52764 94.4769 8.50239 94.4636 8.3132 94.467C8.01627 94.4718 7.71694 94.462 7.41968 94.4361C7.06123 94.4047 6.70434 94.336 6.34631 94.3103C6.05829 94.2891 5.76868 94.3039 5.48063 94.3096C5.01405 94.3198 4.56015 94.3925 4.127 94.5509C4.02989 94.5865 3.95667 94.6631 3.87878 94.7273C3.94211 94.6751 4.39197 94.869 4.47337 94.8993C4.67891 94.975 4.87911 95.0667 5.07256 95.1718C5.45974 95.3828 5.81843 95.6492 6.13536 95.9581C6.79768 96.6037 7.12451 97.3217 7.39858 98.1678C7.4575 98.3502 7.698 98.485 7.8549 98.4203C8.01422 98.354 8.14769 98.2498 8.22465 98.0913C8.32733 97.8806 8.42367 97.6669 8.52333 97.4553C8.65346 97.1796 8.78483 96.9044 8.91385 96.6282C8.92512 96.6041 8.93538 96.5718 8.92837 96.547C8.86989 96.3376 8.80721 96.1294 8.74008 95.9008C8.16944 96.2502 8.01858 96.8178 7.90756 97.4156C7.85321 97.1968 7.81289 96.9838 7.78931 96.7697C7.75725 96.4753 7.85731 96.2297 8.08624 96.0555C8.21775 95.9553 8.37148 95.8834 8.51127 95.7928ZM7.64174 97.8895C7.59912 97.7949 7.54105 97.7039 7.51714 97.6055C7.38993 97.0847 7.21234 96.5876 6.9305 96.1184C6.67733 95.6963 6.34851 95.352 5.97387 95.0461C5.81734 94.918 5.63979 94.8165 5.44793 94.6869C5.7053 94.5846 5.93824 94.6494 6.13461 94.7401C6.40345 94.8639 6.6846 95.0176 6.88459 95.2298C7.22401 95.5898 7.4698 96.0106 7.49642 96.5306C7.51912 96.9782 7.60001 97.4262 7.64174 97.8895Z" fill="white"/>
<path d="M7.46763 89.6003C6.96246 89.3823 6.42258 89.3823 5.8898 89.3337C5.60615 89.3079 5.32157 89.2792 5.04051 89.2327C4.47143 89.1378 3.93735 88.9339 3.42779 88.662C3.24541 88.5645 3.13255 88.6134 3.085 88.8147C3.04779 88.9713 3.03096 89.1334 3.00291 89.2927C2.94165 89.6365 2.98691 89.9781 3.02819 90.3208C3.06705 90.6442 3.17508 91.3244 3.55452 91.4142C3.73727 91.4578 3.92689 91.4067 4.10699 91.3563C4.35873 91.2858 6.96871 90.468 7.01996 90.6164C6.8577 90.1422 7.10587 89.8487 7.51534 89.6365C7.48819 89.6155 7.47899 89.6053 7.46763 89.6003Z" fill="white"/>
<path d="M3.57087 95.3883C3.57116 95.3891 3.57131 95.3895 3.57186 95.39C3.66905 95.4872 3.78139 95.5679 3.88162 95.6659C3.99945 95.781 4.10833 95.9053 4.22978 96.0168C4.56879 96.3274 5.06925 96.6075 5.51502 96.6688C5.63653 96.6854 5.76311 96.6734 5.86156 96.6113C5.98953 96.5303 6.05325 96.3712 6.04532 96.2132C6.02854 95.8805 5.74626 95.5925 5.48618 95.3988C5.40733 95.3401 5.31602 95.2857 5.22277 95.2909C5.11743 95.297 5.0334 95.3862 5.0223 95.4906C5.01094 95.5949 5.06658 95.7071 5.15299 95.7768C5.29451 95.8909 5.44656 95.8657 5.60116 95.8448C5.58032 95.902 5.52818 95.9418 5.46983 95.9603C5.41136 95.9788 5.34743 95.9782 5.28428 95.9717C5.11802 95.9545 4.95237 95.8968 4.80587 95.8049C4.70502 95.7414 4.60791 95.6545 4.57404 95.5421C4.54865 95.4581 4.5637 95.366 4.61323 95.3006C4.67531 95.2188 4.80082 95.192 4.89591 95.1645C4.89668 95.1643 4.89693 95.164 4.89705 95.1639C4.93179 95.1311 4.91016 95.0975 4.86968 95.0679C4.86941 95.0677 4.86861 95.0674 4.86767 95.0667C4.86764 95.0662 4.86701 95.0665 4.8666 95.0661C4.67547 94.9735 4.47715 94.9003 4.28163 94.8197C4.15202 94.7661 3.87874 94.5828 3.83837 94.8129C3.83074 94.8567 3.83466 94.9022 3.83282 94.947C3.82872 95.0391 3.79652 95.1268 3.744 95.1982C3.72658 95.2219 3.68255 95.2512 3.6428 95.2827C3.60042 95.3166 3.56248 95.3535 3.57087 95.3883Z" fill="white"/>
<path d="M13.9236 97.0977C13.9181 97.0655 13.9104 97.034 13.9002 97.0038C13.8417 96.8291 13.7822 96.654 13.7205 96.4804C13.7202 96.4795 13.72 96.4793 13.7201 96.4789C13.7145 96.4666 13.7094 96.4543 13.7036 96.4421C13.575 96.1533 13.4506 95.8614 13.3469 95.5632C13.3453 95.5598 13.3442 95.5563 13.3426 95.553C13.22 95.2277 13.0883 94.9042 13.0988 94.547C13.0997 94.5116 13.1008 94.4765 13.1018 94.441C13.1018 94.4404 13.1021 94.4396 13.1018 94.4391C13.0689 93.9348 13.1235 93.4309 13.1341 92.9211C13.1445 92.4001 12.8918 92.0085 12.4693 91.7412C12.1105 91.5138 11.7167 91.343 11.3383 91.1465C11.3299 91.1565 11.3218 91.1663 11.3134 91.1763C11.44 91.4731 11.5832 91.7645 11.6883 92.0686C11.9595 92.8532 12.1246 93.6641 12.1463 94.491C12.1562 94.8626 12.1387 95.2345 12.0942 95.603C12.0489 95.9757 11.9567 96.3348 11.8886 96.7027C11.8701 96.8027 11.8406 96.918 11.9662 96.9816C12.3284 97.1662 12.6931 97.3439 13.0955 97.4187C13.318 97.4601 13.5369 97.5037 13.7605 97.4301C13.7611 97.4296 13.7613 97.4293 13.7616 97.429C13.8242 97.3955 13.8759 97.3454 13.9029 97.2801C13.9262 97.2234 13.9295 97.1611 13.9236 97.0993C13.9239 97.0985 13.9236 97.0982 13.9236 97.0977Z" fill="white"/>
<path d="M4.96655 97.7447C5.17457 97.9487 5.45605 98.0478 5.78928 97.9525C6.16824 97.844 6.28665 97.8243 6.31927 97.4097C6.33026 97.2635 6.31812 97.1206 6.31672 96.9768C6.32493 96.9724 6.33315 96.968 6.34144 96.964C6.44342 97.1484 6.54539 97.3328 6.65277 97.5254C6.73814 97.5068 6.84366 97.4828 6.96929 97.455C6.77695 97.0698 6.66668 96.6645 6.41907 96.2979C6.34828 96.4347 6.29689 96.5245 6.25479 96.6162C6.12895 96.8908 5.95332 97.1142 5.65096 97.1778C5.51476 97.2065 5.37158 97.2202 5.24783 97.2004C4.99338 97.1594 4.74939 97.092 4.48371 97.0315C4.49439 97.0818 4.50088 97.1292 4.51407 97.1725C4.5917 97.4261 4.79325 97.5741 4.96655 97.7447Z" fill="white"/>
<path d="M10.0946 98.4284C10.0869 98.4062 10.0766 98.3831 10.0616 98.3652C9.93233 98.2077 9.79666 98.055 9.67248 97.8935C9.56042 97.7471 9.45784 97.5931 9.3566 97.4391C9.28623 97.3311 9.22549 97.2171 9.15171 97.0911C9.12048 97.1302 9.10301 97.1455 9.09391 97.1644C8.84941 97.6747 8.63943 98.2062 8.33636 98.6852C8.25596 98.8121 8.16105 98.9418 8.01934 98.993C7.83956 99.058 7.63017 98.9741 7.4925 98.8365C7.35931 98.703 7.33371 98.4976 7.20019 98.371C7.06585 98.2436 6.84314 98.2265 6.674 98.2666C6.44702 98.3204 6.2495 98.4557 6.02933 98.5321C5.74561 98.6301 5.42672 98.6161 5.14324 98.51C4.78265 98.3751 4.6779 98.1657 4.4451 97.8934C4.35389 97.7865 4.23273 97.6989 4.09551 97.6744C3.5104 97.5702 3.77852 98.1876 3.90148 98.4553C4.10792 98.9047 4.49392 99.2662 4.93167 99.4881C5.51831 99.7854 6.19071 99.8591 6.84258 99.8435C7.49445 99.828 8.1401 99.7287 8.79145 99.7009C9.03501 99.6905 9.28325 99.6896 9.51503 99.6177C10.001 99.4668 10.2618 98.915 10.0946 98.4284Z" fill="white"/>
<path d="M10.3826 97.29C10.1793 96.9647 9.99297 96.6268 9.84983 96.2694C9.77758 96.0895 9.71654 95.9046 9.67054 95.7156C9.62546 95.5306 9.63149 95.3535 9.62101 95.1639C9.61919 95.1281 9.59791 95.072 9.64861 95.0799C9.67568 95.0839 9.75797 95.3665 9.77271 95.4032C9.8179 95.5146 9.86515 95.625 9.91462 95.7346C10.0136 95.9537 10.1208 96.1687 10.2365 96.3792C10.4592 96.7847 10.7183 97.1593 10.9904 97.5313C11.0395 97.5982 11.1637 97.716 11.1724 97.8035C11.186 97.7848 11.1949 97.775 11.1991 97.7653C11.1995 97.7638 11.2004 97.7622 11.2005 97.7606C11.3517 97.3189 11.4109 96.8425 11.4691 96.384C11.5262 95.9353 11.5586 95.4841 11.5665 95.0328C11.5743 94.5724 11.5569 94.112 11.5139 93.655C11.4921 93.424 11.4639 93.1935 11.4292 92.9646C11.3962 92.746 11.3395 92.5443 11.2909 92.3315C11.1896 91.8883 11.0122 91.4743 10.7879 91.0818C10.2977 90.2218 9.01355 89.4932 7.99498 89.8136C7.76934 89.8845 7.25785 90.2375 7.31016 90.5431C7.31637 90.5799 7.33085 90.6161 7.35511 90.6509C8.46991 92.2593 8.80978 94.083 9.15755 95.9898C9.21222 96.205 9.27488 96.4182 9.34805 96.628C9.50332 97.0729 9.71245 97.501 9.99507 97.8774C10.2634 98.2348 10.5814 98.5555 10.9903 98.7508C11.1377 98.821 11.244 98.8533 11.4055 98.837C11.278 98.5671 11.0697 98.316 10.9012 98.0701C10.7253 97.8121 10.5481 97.5548 10.3826 97.29Z" fill="white"/>
<path d="M3.84874 96.328C3.68107 96.1487 3.42652 95.9276 3.38742 95.9034C3.12007 95.738 2.81629 95.6806 2.55803 95.4916C2.25718 95.2712 2.01596 94.9785 1.91882 94.6155C1.83279 94.294 1.75776 93.9697 1.67986 93.6464C1.67228 93.6148 1.67997 93.5807 1.68124 93.5072C1.75697 93.6151 1.81977 93.6848 1.85952 93.7659C1.97993 94.0136 2.07407 94.2756 2.21341 94.5125C2.29945 94.6584 2.44737 94.7603 2.56701 94.8765C2.61349 94.8063 2.60053 94.7481 2.60101 94.6634C2.60144 94.565 2.61215 94.467 2.63269 94.3712C2.67351 94.1798 2.75322 93.9976 2.86791 93.8407C2.98998 93.6736 3.15072 93.536 3.33334 93.4386C3.52492 93.3363 3.74128 93.2934 3.94205 93.2117C4.09578 93.1493 4.25015 93.0883 4.39643 93.0127C4.65996 92.8774 4.77071 92.6244 4.863 92.3612C4.87979 92.3131 4.89078 92.2624 4.90524 92.2098C4.70016 92.3068 4.51677 92.4113 4.29414 92.4729C4.07214 92.5344 3.84393 92.5724 3.61769 92.617C3.24505 92.691 2.86422 92.7904 2.57159 93.0279C2.45629 93.1213 2.31572 93.2194 2.17587 93.0934C2.25301 92.9435 2.33246 92.7974 2.45242 92.6775C2.45623 92.6721 2.46081 92.6673 2.46463 92.6622C2.71536 92.3507 3.19271 92.3834 3.55268 92.3192C3.95709 92.247 4.35467 92.1339 4.7265 91.9635C4.7785 91.9397 4.82986 91.9148 4.88082 91.8888C5.09215 91.7807 5.29268 91.6535 5.48683 91.5178C5.58588 91.4485 5.68315 91.3767 5.77978 91.3042C5.86089 91.2432 6.00331 91.1705 6.056 91.0863C6.02751 91.067 5.96351 91.0941 5.93205 91.1059C5.72745 91.1831 5.52783 91.2751 5.31864 91.3375C4.84579 91.4789 4.37126 91.6169 3.89735 91.7545C3.43081 91.8899 2.94906 91.9397 2.47227 92.0308C1.9822 92.1243 1.48524 92.2832 1.13007 92.6277C0.774892 92.9722 0.601694 93.5427 0.834015 93.9934C1.1524 94.6106 1.56191 95.2303 2.01957 95.7548C2.49112 96.2955 3.2479 97.0334 3.98884 96.556C4.02291 96.5334 3.95237 96.4388 3.84874 96.328Z" fill="white"/>
<path d="M8.58026 93.7864C8.38594 93.2508 8.16242 92.7236 7.93605 92.1963C7.86115 92.0224 7.76142 91.8461 7.63526 91.7005C7.51415 91.5608 7.36863 91.4495 7.19681 91.3948C6.9582 91.319 6.71097 91.3678 6.49188 91.4486C6.14313 91.5766 5.83292 91.786 5.58516 92.0536C5.40817 92.2446 5.03075 92.6698 5.08356 92.9761C5.107 93.1115 5.18702 93.0811 5.32439 93.1092C5.83769 93.2147 6.32256 93.4619 6.81183 93.6659C7.01604 93.7511 8.75483 94.2646 8.58026 93.7864Z" fill="white"/>
<path d="M0.37016 93.9521C0.387843 94.0315 0.415772 94.1049 0.444225 94.1806C0.453768 94.1964 0.463485 94.212 0.474313 94.2274C0.478108 94.2322 0.481382 94.2376 0.484863 94.2424C0.438418 94.1491 0.399754 94.0511 0.376444 93.9455C0.328391 93.7277 0.379738 93.4981 0.484863 93.2727C0.482019 93.2775 0.479592 93.2827 0.476573 93.2877C0.375059 93.5098 0.322772 93.738 0.37016 93.9521Z" fill="white"/>
<path d="M8.58213 93.7218C8.50163 93.7166 8.41244 93.7436 8.33234 93.7533C8.02822 93.7901 7.70878 93.8073 7.40888 93.7633C7.14445 93.7245 6.89108 93.5986 6.63448 93.521C6.08298 93.3535 5.48953 93.2483 4.90412 93.3894C4.48377 93.4906 4.09586 93.7122 3.73561 93.9618C3.54909 94.0909 3.36163 94.2358 3.25623 94.4358C3.15676 94.624 3.17025 95.2403 3.49289 95.196C3.6998 95.1673 3.78737 94.7798 3.90509 94.6437C4.1381 94.3748 4.45168 94.1772 4.78226 94.0601C5.30523 93.8746 5.86506 93.8698 6.40782 93.9017C6.8165 93.9257 7.22359 93.9701 7.63477 93.9685C7.99031 93.967 8.42166 93.9999 8.72727 93.7576C8.71083 93.7704 8.61567 93.7255 8.59295 93.7233C8.5897 93.7224 8.58605 93.722 8.58213 93.7218Z" fill="white"/>
</svg>
