<svg width="77" height="102" viewBox="0 0 77 102" fill="none" xmlns="http://www.w3.org/2000/svg">
<path d="M6 9H69.5V102" stroke="white"/>
<path d="M72.5032 25.8975C72.6409 25.4782 72.7901 25.1038 72.9455 24.7861C73.1019 24.4686 73.2752 24.2168 73.4416 24.0371C73.6048 23.8484 73.7806 23.7736 73.8963 23.7256C74.0182 23.6998 74.0856 23.6915 74.0856 23.6915C74.0856 23.6915 74.0188 23.6952 73.8936 23.7137C73.7748 23.7537 73.59 23.8199 73.4135 24.0016C73.2338 24.1744 73.0429 24.4212 72.8676 24.734C72.6929 25.0471 72.5217 25.4178 72.3603 25.8341C71.7193 27.5051 71.2274 29.8716 70.8821 32.2522C70.8745 32.3047 70.8679 32.357 70.8605 32.4098C70.8418 32.1407 70.8229 31.8675 70.8046 31.6014C70.7539 30.957 70.7037 30.3204 70.6544 29.6924C70.4394 27.1865 70.2363 24.8172 70.0489 22.6306C69.9381 21.5384 69.8744 20.488 69.7909 19.4905C69.7186 18.492 69.6222 17.5456 69.5449 16.6549C69.3879 14.8738 69.2757 13.3155 69.1501 12.0336C68.9143 9.46871 68.7221 8 68.7221 8L68.4765 8.00184C68.4765 8.00184 68.3261 9.47262 68.1635 12.0525C68.1179 12.6973 68.0807 13.4115 68.0392 14.1893C67.997 14.9673 67.9442 15.8087 67.9343 16.7086C67.8897 18.5081 67.8513 20.5408 67.8593 22.7585C67.8895 24.8504 67.9399 27.1118 68.0591 29.483L67.8784 29.4325L67.6988 29.0466L67.3128 29.0001L67.0865 28.6464L66.6987 28.6633L66.4288 28.3509L66.0475 28.432L65.739 28.1679L65.3723 28.3105L65.0332 28.0986L64.6873 28.2965L64.3264 28.1361L64.0051 28.3808L63.63 28.2684L63.3345 28.5508L62.9514 28.4815L62.6805 28.7934L62.293 28.7619L62.0451 29.0973L61.6565 29.0978L61.4296 29.4514L61 29.5523L61.3885 29.7765L61.5251 30.1856L61.9015 30.2999L62.0651 30.6966L62.4478 30.7798L62.6375 31.1618L63.0249 31.2111L63.2424 31.5742L63.6323 31.5845L63.8795 31.9223L64.2684 31.8873L64.5481 32.1918L64.93 32.1043L65.2433 32.3646L65.6104 32.2174L65.955 32.422L66.2964 32.211L66.6666 32.349L66.9714 32.0762L67.3566 32.1423L67.617 31.8168L68.0069 31.8129L68.168 31.5366C68.173 31.6345 68.1783 31.7292 68.1836 31.8271C68.2243 32.4718 68.2659 33.1244 68.3078 33.7843C68.4019 35.1014 68.4979 36.4471 68.5957 37.8153C68.6445 38.4984 68.6938 39.1875 68.7433 39.8814C68.7931 40.5758 68.8488 41.2743 68.8833 41.9772C68.9645 43.3837 69.0461 44.8073 69.1289 46.2424C69.2111 47.686 69.2944 49.1411 69.3778 50.6017C69.481 52.0617 69.5844 53.5276 69.6877 54.9935C69.8479 57.9261 69.9905 60.8656 69.9527 63.7553C69.928 65.1998 69.8826 66.6328 69.7998 68.0463C69.7905 68.2299 69.7761 68.4117 69.764 68.5948L69.6988 68.5264L69.705 68.2029L69.4678 68.0193L69.4312 67.6984L69.1721 67.5558L69.0933 67.2443L68.8183 67.1457L68.701 66.8506L68.4163 66.7953L68.2652 66.5195L67.9769 66.5048L67.7985 66.2504L67.5103 66.2702L67.3097 66.0375L67.0242 66.088L66.8062 65.8751L66.5254 65.9507L66.294 65.7571L66.0181 65.8539L65.7226 65.6991L65.8644 66.0267L65.783 66.3382L65.9614 66.5946L65.901 66.9123L66.0958 67.1535L66.0568 67.4756L66.2677 67.6988L66.2529 68.0232L66.4804 68.2243L66.4931 68.5492L66.7383 68.7224L66.7838 69.0438L67.0458 69.1825L67.1284 69.4945L67.4057 69.5903L67.5296 69.8845L67.8168 69.9294L67.9822 70.1967L68.272 70.1863L68.4749 70.4185L68.7594 70.3552L68.993 70.5478L69.2658 70.4367L69.5215 70.5897L69.5959 70.5464C69.5418 71.1081 69.4894 71.6668 69.4273 72.2204C69.3529 72.9039 69.2789 73.582 69.2058 74.2538C69.1264 74.9251 69.0477 75.5907 68.9702 76.2484C68.8225 77.5642 68.693 78.8529 68.5978 80.1173C68.3896 82.6375 68.3512 85.0418 68.3047 87.256C68.2874 88.8777 68.3127 90.4017 68.3458 91.8084C68.3366 91.8481 68.3273 91.8872 68.3181 91.9269L68.1941 92.3395C68.1555 92.4798 68.1072 92.6143 68.0546 92.7463C68.002 92.8783 67.9582 93.0168 67.8986 93.1428C67.839 93.2698 67.7798 93.3958 67.7216 93.52C67.6624 93.6446 67.5888 93.755 67.5247 93.8718C67.4616 93.9902 67.3891 94.0964 67.3136 94.1961C67.2372 94.2947 67.1743 94.4076 67.0908 94.4899C67.0109 94.5781 66.9332 94.6641 66.8582 94.7468C66.778 94.8228 66.6943 94.8871 66.6166 94.955C66.5772 94.9875 66.5398 95.023 66.5001 95.0513C66.459 95.076 66.4187 95.1009 66.3797 95.1246C66.3001 95.1728 66.2247 95.2181 66.154 95.2615C66.0027 95.3172 65.8699 95.378 65.7569 95.4101C65.5246 95.452 65.3919 95.4762 65.3919 95.4762C65.3919 95.4762 65.5277 95.4734 65.7655 95.4686C65.8839 95.4545 66.0255 95.4156 66.192 95.3813C66.2711 95.3488 66.355 95.3137 66.4438 95.2778C66.4886 95.2589 66.5344 95.2396 66.5815 95.2202C66.6269 95.1967 66.6703 95.1672 66.7163 95.1396C66.8066 95.082 66.9054 95.0267 67.001 94.9592C67.0921 94.8836 67.1862 94.8062 67.283 94.726C67.3849 94.6505 67.4649 94.5452 67.5609 94.4516C67.6556 94.3563 67.7481 94.2547 67.8309 94.1406C67.9152 94.0287 68.0102 93.9197 68.0901 93.7978C68.1697 93.675 68.2498 93.5504 68.331 93.4253C68.3503 93.3951 68.3672 93.3629 68.3851 93.3317C68.405 94.2254 68.4621 95.0548 68.508 95.8241C68.5587 96.5998 68.6068 97.3117 68.6615 97.9551C68.858 100.529 69.051 101.999 69.051 101.999L69.2966 102C69.2966 102 69.4954 100.531 69.7023 97.9588C69.7593 97.3158 69.8105 96.6039 69.8645 95.8291C69.9173 95.0548 69.9601 94.2137 70.0314 93.3246C70.1664 91.5428 70.2653 89.5368 70.3929 87.3468C70.4606 86.2515 70.5284 85.1109 70.5857 83.9297C70.6003 83.6507 70.6151 83.3623 70.6299 83.0789L70.7434 83.1711L71.0141 83.0549L71.2741 83.1994L71.5236 83.0337L71.8017 83.1268L72.0234 82.9172L72.3108 82.9596L72.5019 82.7151L72.7919 82.7114L72.9525 82.4405L73.2398 82.3972L73.3724 82.1083L73.6542 82.0318L73.7612 81.7298L74.0358 81.6254L74.1201 81.3139L74.3867 81.1861L74.45 80.8688L74.7073 80.7191L74.749 80.3977L75 80.1664L74.6738 80.1691L74.459 79.9519L74.1764 80.0203L73.9493 79.8206L73.672 79.9118L73.4314 79.7328L73.1625 79.8507L72.9081 79.6978L72.6512 79.8454L72.3831 79.7245L72.1435 79.9044L71.8644 79.8217L71.6477 80.036L71.3608 79.9968L71.1738 80.2433L70.8854 80.2514L70.7434 80.5073C70.7463 80.4256 70.7508 80.3458 70.753 80.2634C70.7941 79.0057 70.8048 77.704 70.8001 76.371C70.7941 75.0401 70.7752 73.6787 70.7343 72.292C70.6893 69.5216 70.6129 66.6669 70.6965 63.7696C70.7062 63.4079 70.716 63.0448 70.7257 62.681C70.7321 62.3175 70.7384 61.9535 70.7446 61.589C70.7608 60.8596 70.7832 60.1284 70.8102 59.3955C70.8433 58.6624 70.8768 57.9277 70.9099 57.1926C70.951 56.457 70.9923 55.7204 71.0338 54.9841C71.1493 52.0241 71.3193 49.0996 71.3063 46.1903C71.293 44.7333 71.2794 43.2877 71.2663 41.8597C71.2642 41.1446 71.2447 40.436 71.2173 39.7333C71.1931 39.0299 71.169 38.3318 71.145 37.6393C71.131 37.2965 71.1218 36.9541 71.1105 36.6139C71.1536 35.2765 71.2336 33.7995 71.3711 32.3266C71.5902 29.9509 71.9569 27.5811 72.5032 25.8975ZM67.945 30.7019C67.76 30.6402 67.5699 30.5695 67.3734 30.5121C67.2752 30.4819 67.1765 30.4515 67.0775 30.4209C66.9776 30.3932 66.8771 30.3658 66.7768 30.3382C66.6761 30.3117 66.5755 30.2817 66.475 30.258C66.3739 30.2345 66.2736 30.2112 66.1737 30.188C65.9744 30.1382 65.776 30.1043 65.5847 30.0675C65.3929 30.0276 65.2065 30.0039 65.0293 29.9778C64.9407 29.9652 64.8544 29.9525 64.7712 29.9408C64.6875 29.9327 64.6065 29.9251 64.5288 29.9175C64.3732 29.9034 64.2306 29.8875 64.104 29.879C63.977 29.8737 63.8664 29.8691 63.7751 29.8652C63.5922 29.8578 63.4882 29.8534 63.4882 29.8534C63.4882 29.8534 63.5924 29.8456 63.7749 29.8322C63.8662 29.8258 63.9772 29.8175 64.1046 29.808C64.232 29.8021 64.3757 29.8014 64.5331 29.7977C64.6117 29.7961 64.6937 29.7947 64.7786 29.7928C64.8632 29.7954 64.951 29.7977 65.041 29.8002C65.2213 29.8057 65.4122 29.808 65.6085 29.8258C65.8052 29.8405 66.0093 29.8521 66.215 29.879C66.3184 29.8908 66.4224 29.9027 66.527 29.9145C66.6315 29.9267 66.7357 29.9451 66.8401 29.9603C66.9449 29.9765 67.0493 29.9928 67.1533 30.0089C67.2569 30.0283 67.3605 30.0476 67.4628 30.0668C67.6688 30.1022 67.8686 30.1516 68.0636 30.1933C68.0745 30.1958 68.085 30.1983 68.0957 30.2009C68.1058 30.3882 68.1162 30.5789 68.1261 30.7676C68.0661 30.7462 68.0067 30.7241 67.945 30.7019ZM69.3981 69.8555C69.3126 69.7262 69.2276 69.5892 69.1332 69.4569C69.0868 69.3899 69.0401 69.3224 68.993 69.2549C68.9445 69.1883 68.8958 69.1222 68.8469 69.0556C68.7976 68.9895 68.7499 68.9215 68.6993 68.8572C68.6484 68.7929 68.598 68.7284 68.5476 68.6651C68.449 68.5358 68.3446 68.4167 68.2449 68.2988C68.1469 68.179 68.0451 68.0716 67.9502 67.9679C67.9025 67.9161 67.856 67.8654 67.8112 67.8168C67.7644 67.77 67.7196 67.7251 67.6764 67.6818C67.5895 67.5959 67.5107 67.5148 67.4388 67.4466C67.3654 67.38 67.3015 67.3224 67.2487 67.2742C67.143 67.1784 67.0826 67.1236 67.0826 67.1236C67.0826 67.1236 67.1475 67.1713 67.2614 67.254C67.3183 67.2959 67.3876 67.3461 67.4672 67.4046C67.5457 67.4645 67.6314 67.5359 67.7265 67.6124C67.7738 67.6507 67.8233 67.6908 67.8747 67.7322C67.9241 67.7758 67.9754 67.8214 68.0281 67.8677C68.1331 67.9608 68.2459 68.0575 68.3555 68.1665C68.4665 68.2737 68.5834 68.3826 68.6952 68.5013C68.752 68.5602 68.8093 68.6188 68.8664 68.6787C68.9236 68.7381 68.9782 68.801 69.0344 68.8623C69.0901 68.9245 69.146 68.986 69.2015 69.0477C69.2555 69.1111 69.3092 69.1742 69.3626 69.2371C69.4707 69.3608 69.5702 69.4905 69.6699 69.6124C69.6738 69.6177 69.6771 69.6223 69.6814 69.6272C69.6656 69.8013 69.6514 69.9764 69.6333 70.1501C69.6308 70.1752 69.6286 70.2006 69.6261 70.2262C69.555 70.1066 69.4785 69.9829 69.3981 69.8555ZM70.8069 81.4932C70.8809 81.4639 70.9557 81.4319 71.0299 81.4049C71.1039 81.378 71.1789 81.351 71.2521 81.3238C71.3978 81.2676 71.545 81.2234 71.6858 81.178C71.8259 81.1303 71.9645 81.0953 72.0948 81.0591C72.1597 81.0416 72.2232 81.0241 72.2847 81.0073C72.3465 80.9937 72.4066 80.9803 72.4637 80.9672C72.5788 80.9425 72.683 80.9177 72.7765 80.8992C72.8705 80.8836 72.9523 80.87 73.0197 80.8587C73.1541 80.8366 73.231 80.8237 73.231 80.8237C73.231 80.8237 73.1557 80.8453 73.024 80.8831C72.9584 80.9015 72.8785 80.9246 72.7872 80.9511C72.6964 80.9794 72.5948 81.0163 72.4836 81.054C72.4284 81.0729 72.3706 81.0927 72.311 81.1135C72.252 81.137 72.1912 81.1612 72.1283 81.1858C72.0033 81.2363 71.8709 81.2863 71.7373 81.3492C71.6033 81.4095 71.464 81.4692 71.3261 81.5409C71.2568 81.575 71.1869 81.6097 71.1168 81.6443C71.0467 81.6793 70.9783 81.7189 70.9086 81.7558C70.8398 81.7931 70.7707 81.8309 70.7019 81.8687C70.6967 81.8715 70.6914 81.8744 70.6864 81.8777C70.6914 81.7648 70.6951 81.6487 70.6998 81.5353C70.7362 81.522 70.7717 81.5074 70.8069 81.4932Z" fill="white"/>
<path d="M52.6667 12.2335C52.7343 12.108 52.8012 11.9835 52.8673 11.8605C52.9349 11.7375 52.9816 11.6084 53.0385 11.4847C53.1551 11.2381 53.2324 10.9879 53.3139 10.7519C53.3575 10.6286 53.3898 10.5068 53.4194 10.388C55.1095 10.2422 56.7139 10.104 58.2009 9.97583C59.0023 9.89303 59.7772 9.84762 60.5097 9.78605C61.2422 9.7333 61.9454 9.66128 62.599 9.60428C63.906 9.48816 65.066 9.4065 66.0065 9.31292C67.8885 9.13817 69 8.99265 69 8.99265V8.79748C69 8.79748 67.889 8.67075 65.9983 8.52899C65.5255 8.48963 64.969 8.45664 64.3986 8.41989C63.8286 8.38249 63.2118 8.33644 62.5521 8.32419C61.2328 8.28025 59.7429 8.23959 58.1165 8.23534C56.4912 8.25004 54.7272 8.28091 52.8742 8.37629C52.4105 8.40029 51.9407 8.42446 51.4652 8.44913C50.992 8.47836 50.5132 8.50808 50.0291 8.53813C49.0628 8.6064 48.0753 8.6763 47.0711 8.74735C46.6347 8.77821 46.1939 8.80941 45.7511 8.84093L45.7706 8.67794L45.9799 8.47019L45.9712 8.2409L46.1564 8.01535L46.1099 7.80304L46.2666 7.56427L46.1837 7.37302L46.31 7.12641L46.1944 6.95901L46.2902 6.70978L46.147 6.56655L46.2144 6.31863L46.049 6.19843L46.0913 5.95411L45.9079 5.85481L45.928 5.61587L45.7309 5.53503L45.7319 5.30198L45.5243 5.2373L45.4662 5L45.3327 5.27878L45.0909 5.4439L45.0221 5.69296L44.7877 5.87179L44.7372 6.11857L44.5112 6.30998L44.4807 6.55267L44.2659 6.75682L44.2585 6.99298L44.0584 7.21003L44.0775 7.43622L43.8969 7.66601L43.9475 7.87767L43.7925 8.11857L43.8784 8.30916L43.7566 8.55757L43.8799 8.71991L43.7979 8.96848C42.8368 9.02205 41.8659 9.07627 40.8871 9.13082C39.8281 9.18929 38.7605 9.24824 37.689 9.30753C36.6176 9.38233 35.5423 9.45746 34.4668 9.53258C32.3153 9.6456 30.159 9.74457 28.0401 9.70064C26.9809 9.67418 25.9304 9.63123 24.8944 9.55855C24.3762 9.52703 23.8621 9.47738 23.3523 9.41679C22.8424 9.35848 22.3363 9.30671 21.8352 9.24253C21.3342 9.18014 20.8375 9.11792 20.3454 9.05651C19.8533 8.9902 19.3659 8.92455 18.8834 8.85955C17.9195 8.73559 16.9748 8.62649 16.0485 8.54483C14.8015 8.42496 13.5945 8.36714 12.4412 8.32729L12.6736 8.24661L12.7542 7.94676L13.0382 7.8081L13.0837 7.50139L13.3516 7.3348L13.3668 7.02515L13.6181 6.83603L13.6069 6.52621L13.8423 6.31831L13.8073 6.01029L14.0265 5.78638L13.9681 5.48212L14.1547 5.18651L13.8177 5.30198L13.5267 5.18079L13.256 5.34019L12.9574 5.23845L12.6994 5.41695L12.3933 5.33905L12.1524 5.53862L11.8404 5.48881L11.6212 5.71093L11.3053 5.69459L11.114 5.94006L10.7988 5.96195L10.6422 6.23012L10.333 6.2943L10.2172 6.58125L9.92106 6.68888L9.85028 6.98938L9.57388 7.13849L9.54911 7.44619L9.29764 7.63286L9.31738 7.94072L9.09435 8.1594L9.11626 8.26752C8.13947 8.27225 7.22224 8.29267 6.37695 8.3108C5.71555 8.32174 5.10216 8.36387 4.53295 8.3967C3.96424 8.43345 3.44154 8.46823 2.96954 8.50841C1.08154 8.65197 0.00200798 8.7983 0.00200798 8.7983L0 8.99347C0 8.99347 1.07635 9.15858 2.96117 9.33546C3.43234 9.3838 3.9542 9.42789 4.52224 9.4746C5.08978 9.5205 5.70618 9.55839 6.35788 9.61947C7.66379 9.73559 9.13484 9.82362 10.7399 9.93549C11.5429 9.99477 12.3791 10.0542 13.2448 10.1053C13.6782 10.1325 14.119 10.1599 14.5666 10.1878C14.612 10.1904 14.6591 10.1921 14.7048 10.1947C14.159 10.4771 13.3828 10.7168 12.5965 10.8849C11.7073 11.0784 10.7956 11.1906 10.1103 11.2481C9.76763 11.2781 9.48101 11.295 9.28023 11.3059C9.07945 11.3152 8.96467 11.3208 8.96467 11.3208C8.96467 11.3208 9.07962 11.3244 9.28074 11.331C9.48185 11.3361 9.76947 11.3422 10.1151 11.3394C10.8062 11.3364 11.7296 11.2974 12.6498 11.173C13.5696 11.0498 14.4868 10.8444 15.1502 10.5164C15.3165 10.4348 15.468 10.3413 15.5959 10.2389C15.7089 10.244 15.8188 10.2515 15.9328 10.2558C16.8548 10.2946 17.8095 10.3095 18.7867 10.3119C19.7628 10.3137 20.761 10.3052 21.778 10.2794C23.8099 10.2572 25.9033 10.2104 28.0271 10.2907C28.2928 10.3002 28.5587 10.3097 28.8252 10.319C29.0916 10.3258 29.3586 10.3327 29.626 10.3394C30.1606 10.356 30.6966 10.3769 31.2341 10.4019C31.7715 10.4321 32.3099 10.4619 32.8488 10.4919C33.3881 10.5282 33.9279 10.5646 34.4676 10.601C36.6372 10.7072 38.7809 10.8563 40.9142 10.8602C41.9827 10.8566 43.0426 10.8528 44.0897 10.8491C44.6141 10.8511 45.1336 10.839 45.6489 10.8207C46.1648 10.8048 46.6771 10.789 47.1851 10.7733C47.2928 10.7692 47.3999 10.7666 47.5076 10.7637C47.6015 10.8934 47.7042 11.032 47.8294 11.1597C47.899 11.2357 47.9714 11.3147 48.0467 11.3965C48.1291 11.4708 48.2146 11.5479 48.3021 11.6271C48.4699 11.7919 48.6829 11.9254 48.8843 12.0792C49.1058 12.2082 49.323 12.3554 49.5695 12.4607C49.8052 12.5839 50.0641 12.6665 50.3149 12.7585C50.5761 12.8252 50.8311 12.902 51.0924 12.9337C51.2555 12.9667 51.4193 12.9789 51.5801 12.9887C51.5729 12.9998 51.5664 13.0113 51.5591 13.0225C51.4784 13.1289 51.3979 13.2349 51.3183 13.3402C51.2427 13.4501 51.1434 13.5365 51.0581 13.6351L50.9261 13.7781C50.8802 13.8231 50.8306 13.8631 50.7834 13.9058C50.6868 13.9874 50.5973 14.0768 50.4986 14.1494C50.3977 14.2202 50.2995 14.2892 50.2033 14.3565C50.1099 14.4295 50.0023 14.4713 49.9068 14.5283C49.8081 14.5786 49.7172 14.64 49.6185 14.6721C49.4253 14.7447 49.2509 14.8285 49.0834 14.8599C48.9185 14.8983 48.7752 14.9479 48.6523 14.9539C48.407 14.9832 48.2668 15 48.2668 15C48.2668 15 48.4085 14.9984 48.6564 14.9958C48.7823 15.0028 48.93 14.9691 49.1032 14.9479C49.279 14.9337 49.4647 14.8689 49.6744 14.8146C49.7813 14.7918 49.8807 14.7397 49.9898 14.6983C50.0954 14.6505 50.2148 14.6169 50.3202 14.5523C50.429 14.4924 50.5411 14.4308 50.6552 14.3681C50.7683 14.3026 50.8725 14.2202 50.9851 14.144C51.04 14.1044 51.0981 14.067 51.1523 14.0243C51.2043 13.9794 51.2567 13.9342 51.3092 13.8886C51.4113 13.7945 51.5291 13.7106 51.6225 13.6038C51.7207 13.5004 51.8194 13.3962 51.9188 13.2914C51.9991 13.1965 52.0751 13.097 52.1524 12.9984C52.2929 12.9954 52.4294 12.9904 52.5603 12.9675C52.6712 12.9535 52.7791 12.9396 52.8834 12.9263C52.9858 12.9033 53.0846 12.8811 53.1797 12.8595C53.3701 12.8235 53.5376 12.7642 53.6853 12.7137C53.7591 12.689 53.8282 12.6658 53.8921 12.6446C53.9535 12.6172 54.0101 12.5919 54.0611 12.5693C54.2636 12.4784 54.379 12.4264 54.379 12.4264C54.379 12.4264 54.257 12.4612 54.0439 12.5218C53.991 12.5368 53.9323 12.5533 53.8685 12.5715C53.8029 12.5832 53.7323 12.5958 53.6564 12.6095C53.5058 12.6374 53.3373 12.6711 53.1491 12.6791C53.056 12.6863 52.9592 12.6939 52.8591 12.7018C52.7587 12.7 52.6548 12.6982 52.5484 12.6961C52.492 12.6979 52.4348 12.6957 52.3771 12.6917C52.3975 12.6606 52.4181 12.6298 52.4383 12.5987C52.5141 12.4761 52.6039 12.3606 52.6667 12.2335ZM9.84543 8.15499C9.90951 8.10126 9.97443 8.04704 10.0394 7.99281C10.1058 7.94023 10.1725 7.88731 10.2393 7.83439C10.3066 7.7823 10.3721 7.7284 10.4402 7.6781C10.5085 7.6278 10.5766 7.57798 10.644 7.52834C10.7772 7.4274 10.9153 7.3366 11.0466 7.24677C11.1766 7.15515 11.3088 7.07545 11.4324 6.99804C11.4942 6.95933 11.5544 6.92193 11.6126 6.88568C11.6724 6.85187 11.7301 6.81904 11.7855 6.78769C11.8964 6.72546 11.9968 6.66667 12.088 6.618C12.1802 6.57129 12.2607 6.53079 12.3267 6.49731C12.4589 6.43051 12.5344 6.39245 12.5344 6.39245C12.5344 6.39245 12.4633 6.43786 12.3388 6.51756C12.2767 6.55724 12.2014 6.60559 12.1148 6.66079C12.0296 6.71795 11.9362 6.78638 11.8332 6.85873C11.7818 6.89531 11.7284 6.93304 11.6729 6.97224C11.6193 7.01388 11.5639 7.05683 11.5069 7.10093C11.3931 7.18945 11.2721 7.28042 11.1535 7.38331C11.0337 7.4844 10.9084 7.58648 10.7881 7.69868C10.7274 7.75372 10.666 7.80908 10.6045 7.86477C10.5431 7.92063 10.4846 7.97975 10.4243 8.03707C10.3648 8.09505 10.3052 8.15303 10.246 8.21068C10.2274 8.22979 10.2092 8.24857 10.1906 8.26752C10.0307 8.26621 9.8727 8.26556 9.71542 8.26523C9.75859 8.22865 9.80093 8.19125 9.84543 8.15499ZM44.9336 8.82541C44.9504 8.75992 44.9668 8.6941 44.9833 8.62829C44.9992 8.56247 45.017 8.49633 45.0313 8.431C45.0456 8.36567 45.0596 8.30067 45.0737 8.236C45.1036 8.10616 45.1245 7.98024 45.147 7.85759C45.1712 7.73461 45.1856 7.61767 45.2015 7.50596C45.2094 7.45011 45.2169 7.39588 45.2243 7.3433C45.2293 7.29136 45.2341 7.24122 45.2388 7.19321C45.2475 7.09701 45.2576 7.00817 45.2631 6.93026C45.2666 6.85301 45.2696 6.78556 45.2723 6.7302C45.2773 6.61898 45.2803 6.55545 45.2803 6.55545C45.2803 6.55545 45.2845 6.61636 45.2917 6.72317C45.2952 6.77674 45.2999 6.84174 45.3047 6.91622C45.3081 6.99134 45.3079 7.07774 45.3096 7.17132C45.3103 7.21819 45.3109 7.26719 45.3116 7.31765C45.3099 7.36894 45.3081 7.42202 45.3064 7.47673C45.3027 7.58599 45.3007 7.70096 45.2893 7.82264C45.28 7.94366 45.2724 8.06843 45.2561 8.19745C45.2489 8.26196 45.2413 8.32664 45.234 8.39164C45.2264 8.4568 45.2152 8.52295 45.206 8.58876C45.196 8.65474 45.1863 8.72089 45.1762 8.78671C45.1704 8.81872 45.1649 8.85056 45.159 8.88257C45.0769 8.88862 44.9952 8.8945 44.9127 8.90038C44.9196 8.87555 44.9264 8.85056 44.9336 8.82541ZM52.2789 11.6172C52.2312 11.7359 52.1831 11.8561 52.1346 11.9773C52.0906 12.1013 52.0207 12.2131 51.9641 12.3333C51.9158 12.4303 51.8659 12.5274 51.8095 12.6204C51.6092 12.5775 51.4038 12.5422 51.2047 12.4699C50.9746 12.4085 50.7559 12.3039 50.5362 12.2138C50.3266 12.0985 50.1133 11.9962 49.9257 11.8587C49.7274 11.739 49.5613 11.5826 49.3911 11.4491C49.2412 11.2912 49.0801 11.1586 48.9625 10.9993C48.9004 10.9239 48.8398 10.8507 48.7813 10.7798C48.7667 10.7578 48.7531 10.7377 48.7388 10.7162C49.2205 10.6876 49.6985 10.6595 50.171 10.6316C50.6574 10.5984 51.1391 10.5654 51.6146 10.5329C51.9442 10.5069 52.2675 10.4816 52.5917 10.456C52.5849 10.4931 52.5785 10.53 52.5696 10.5672C52.52 10.7875 52.4766 11.0238 52.3958 11.2577C52.3565 11.3753 52.3279 11.4998 52.2789 11.6172Z" fill="white"/>
<path d="M68.4887 6.20725C68.3858 6.27384 68.3004 6.338 68.3366 6.50402C68.3958 6.77688 68.4247 7.0561 68.453 7.33353C68.4724 7.52313 68.4976 7.53641 68.6868 7.53295C68.9837 7.52815 69.2831 7.53799 69.5803 7.56386C69.9388 7.59529 70.2957 7.66402 70.6537 7.68973C70.9417 7.71087 71.2313 7.69608 71.5194 7.69039C71.986 7.68016 72.4398 7.60749 72.873 7.44915C72.9701 7.41348 73.0433 7.33691 73.1212 7.27271C73.0579 7.32486 72.608 7.13097 72.5266 7.10065C72.3211 7.02496 72.1209 6.93331 71.9274 6.8282C71.5403 6.61716 71.1816 6.35081 70.8646 6.04186C70.2023 5.3963 69.8755 4.67833 69.6014 3.8322C69.5425 3.64982 69.302 3.51495 69.1451 3.57969C68.9858 3.64601 68.8523 3.75015 68.7754 3.90866C68.6727 4.11943 68.5763 4.33307 68.4767 4.54472C68.3465 4.82035 68.2152 5.09555 68.0861 5.37176C68.0749 5.39588 68.0646 5.4282 68.0716 5.45303C68.1301 5.66238 68.1928 5.8706 68.2599 6.09924C68.8306 5.74979 68.9814 5.18224 69.0924 4.58443C69.1468 4.80322 69.1871 5.01621 69.2107 5.2303C69.2428 5.52472 69.1427 5.77029 68.9138 5.94448C68.7822 6.04471 68.6285 6.11661 68.4887 6.20725ZM69.3583 4.11055C69.4009 4.20505 69.4589 4.29612 69.4829 4.39453C69.6101 4.91527 69.7877 5.41242 70.0695 5.88158C70.3227 6.30371 70.6515 6.64796 71.0261 6.95395C71.1827 7.08201 71.3602 7.18346 71.5521 7.31306C71.2947 7.41542 71.0618 7.35065 70.8654 7.25991C70.5965 7.13608 70.3154 6.98238 70.1154 6.77015C69.776 6.41025 69.5302 5.98938 69.5036 5.46945C69.4809 5.02183 69.4 4.57375 69.3583 4.11055Z" fill="white"/>
<path d="M69.5324 12.3997C70.0375 12.6177 70.5774 12.6177 71.1102 12.6663C71.3939 12.6921 71.6784 12.7208 71.9595 12.7673C72.5286 12.8622 73.0627 13.0661 73.5722 13.338C73.7546 13.4355 73.8675 13.3866 73.915 13.1853C73.9522 13.0287 73.969 12.8666 73.9971 12.7073C74.0584 12.3635 74.0131 12.0219 73.9718 11.6792C73.933 11.3558 73.8249 10.6756 73.4455 10.5858C73.2627 10.5422 73.0731 10.5933 72.893 10.6437C72.6413 10.7142 70.0313 11.532 69.9801 11.3836C70.1423 11.8578 69.8941 12.1513 69.4847 12.3635C69.5118 12.3845 69.521 12.3947 69.5324 12.3997Z" fill="white"/>
<path d="M73.4291 6.61172C73.4288 6.61093 73.4287 6.61053 73.4281 6.60998C73.3309 6.51279 73.2186 6.43211 73.1184 6.33413C73.0005 6.21903 72.8917 6.0947 72.7702 5.98322C72.4312 5.67263 71.9307 5.39255 71.485 5.33117C71.3635 5.31462 71.2369 5.32664 71.1384 5.38874C71.0105 5.46968 70.9467 5.62882 70.9547 5.78683C70.9715 6.11945 71.2537 6.40747 71.5138 6.60124C71.5927 6.6599 71.684 6.71431 71.7772 6.70909C71.8826 6.703 71.9666 6.61377 71.9777 6.50945C71.989 6.40513 71.9334 6.29291 71.847 6.2232C71.7055 6.1091 71.5534 6.1343 71.3988 6.1552C71.4197 6.09801 71.4718 6.05817 71.5302 6.03973C71.5886 6.02117 71.6526 6.02178 71.7157 6.02834C71.882 6.04553 72.0476 6.10324 72.1941 6.19514C72.295 6.2586 72.3921 6.34549 72.426 6.45788C72.4513 6.54185 72.4363 6.634 72.3868 6.69939C72.3247 6.78115 72.1992 6.80796 72.1041 6.83552C72.1033 6.83575 72.1031 6.836 72.1029 6.83612C72.0682 6.86894 72.0898 6.90254 72.1303 6.93205C72.1306 6.93232 72.1314 6.93262 72.1323 6.93332C72.1324 6.93384 72.133 6.93348 72.1334 6.93389C72.3245 7.02655 72.5228 7.09972 72.7184 7.18032C72.848 7.23389 73.1213 7.41718 73.1616 7.18707C73.1693 7.14335 73.1653 7.09779 73.1672 7.05302C73.1713 6.96089 73.2035 6.87319 73.256 6.8018C73.2734 6.77809 73.3174 6.74883 73.3572 6.71728C73.3996 6.68338 73.4375 6.64653 73.4291 6.61172Z" fill="white"/>
<path d="M63.0764 4.90229C63.0819 4.93453 63.0896 4.96599 63.0998 4.99625C63.1583 5.17093 63.2178 5.34602 63.2795 5.51964C63.2798 5.52045 63.28 5.52072 63.2799 5.52113C63.2855 5.53343 63.2906 5.54574 63.2964 5.55791C63.425 5.84675 63.5494 6.13865 63.6531 6.43684C63.6547 6.44022 63.6558 6.44373 63.6574 6.44698C63.78 6.77227 63.9117 7.09575 63.9012 7.45303C63.9003 7.48845 63.8992 7.52346 63.8982 7.55901C63.8982 7.55955 63.8979 7.56036 63.8982 7.5609C63.9311 8.06524 63.8765 8.5691 63.8659 9.07886C63.8555 9.59994 64.1082 9.99155 64.5307 10.2588C64.8895 10.4862 65.2833 10.657 65.6617 10.8535C65.6701 10.8435 65.6782 10.8337 65.6866 10.8237C65.56 10.5269 65.4168 10.2355 65.3117 9.93138C65.0405 9.14681 64.8754 8.33595 64.8537 7.50895C64.8438 7.13736 64.8613 6.76546 64.9058 6.39702C64.9511 6.02429 65.0433 5.66516 65.1114 5.29734C65.1299 5.19728 65.1594 5.08196 65.0338 5.01837C64.6716 4.83379 64.3069 4.65606 63.9045 4.58132C63.682 4.53993 63.4631 4.49627 63.2395 4.56991C63.2389 4.57044 63.2387 4.57071 63.2384 4.57098C63.1758 4.60452 63.1241 4.65458 63.0971 4.71995C63.0738 4.77659 63.0705 4.83893 63.0764 4.90068C63.0761 4.90148 63.0764 4.90175 63.0764 4.90229Z" fill="white"/>
<path d="M72.0334 4.25532C71.8254 4.0513 71.5439 3.95222 71.2107 4.04746C70.8318 4.15603 70.7133 4.17572 70.6807 4.59033C70.6697 4.73652 70.6819 4.87938 70.6833 5.02319C70.6751 5.02759 70.6669 5.03199 70.6586 5.036C70.5566 4.85159 70.4546 4.66719 70.3472 4.4746C70.2619 4.4932 70.1563 4.51717 70.0307 4.54503C70.223 4.93022 70.3333 5.33547 70.5809 5.70212C70.6517 5.56528 70.7031 5.47549 70.7452 5.3838C70.8711 5.10916 71.0467 4.88584 71.349 4.82217C71.4852 4.79351 71.6284 4.77982 71.7522 4.79961C72.0066 4.84059 72.2506 4.90802 72.5163 4.96854C72.5056 4.91818 72.4991 4.87078 72.4859 4.82746C72.4083 4.57388 72.2068 4.42586 72.0334 4.25532Z" fill="white"/>
<path d="M66.9054 3.57163C66.9131 3.59377 66.9234 3.61688 66.9384 3.63479C67.0677 3.7923 67.2033 3.94502 67.3275 4.1065C67.4396 4.25293 67.5422 4.40694 67.6434 4.56093C67.7138 4.66887 67.7745 4.7829 67.8483 4.9089C67.8795 4.86979 67.897 4.85449 67.9061 4.83561C68.1506 4.32528 68.3606 3.79376 68.6636 3.31482C68.7441 3.18794 68.839 3.05824 68.9807 3.00704C69.1604 2.94196 69.3698 3.02586 69.5075 3.16353C69.6407 3.29699 69.6663 3.50243 69.7998 3.62903C69.9342 3.75644 70.1569 3.77346 70.326 3.73344C70.553 3.6796 70.7505 3.54433 70.9707 3.46795C71.2544 3.36986 71.5733 3.38394 71.8568 3.48997C72.2174 3.62489 72.3221 3.83435 72.5549 4.10658C72.6461 4.21351 72.7673 4.3011 72.9045 4.32561C73.4896 4.4298 73.2215 3.81237 73.0985 3.54474C72.8921 3.0953 72.5061 2.73382 72.0683 2.51189C71.4817 2.2146 70.8093 2.14089 70.1574 2.15645C69.5056 2.17202 68.8599 2.27133 68.2086 2.29915C67.965 2.3095 67.7168 2.31039 67.485 2.38235C66.999 2.53317 66.7382 3.08505 66.9054 3.57163Z" fill="white"/>
<path d="M66.6174 4.71004C66.8207 5.03526 67.007 5.37319 67.1502 5.73058C67.2224 5.9105 67.2835 6.09536 67.3295 6.28438C67.3745 6.46941 67.3685 6.64646 67.379 6.83613C67.3808 6.8719 67.4021 6.92796 67.3514 6.92011C67.3243 6.91613 67.242 6.63351 67.2273 6.59678C67.1821 6.48538 67.1348 6.37496 67.0854 6.2654C66.9864 6.04626 66.8792 5.83134 66.7635 5.62078C66.5408 5.21526 66.2817 4.84068 66.0096 4.46871C65.9605 4.4018 65.8363 4.28396 65.8276 4.19652C65.814 4.21525 65.8051 4.22498 65.8009 4.23466C65.8005 4.23617 65.7996 4.23783 65.7995 4.23935C65.6483 4.6811 65.5891 5.15751 65.5309 5.61601C65.4738 6.06473 65.4414 6.51594 65.4335 6.96715C65.4257 7.42759 65.4431 7.88803 65.4861 8.34504C65.5079 8.57601 65.5361 8.80651 65.5708 9.03542C65.6038 9.25402 65.6605 9.45572 65.7091 9.66851C65.8104 10.1117 65.9878 10.5257 66.2121 10.9182C66.7023 11.7782 67.9865 12.5068 69.005 12.1864C69.2307 12.1155 69.7422 11.7625 69.6898 11.4569C69.6836 11.4201 69.6692 11.3839 69.6449 11.3491C68.5301 9.74071 68.1902 7.91698 67.8424 6.01022C67.7878 5.79501 67.7251 5.58182 67.652 5.37204C67.4967 4.92711 67.2876 4.49901 67.0049 4.12262C66.7366 3.7652 66.4186 3.44452 66.0097 3.24922C65.8623 3.17896 65.756 3.14666 65.5945 3.16299C65.722 3.43288 65.9303 3.684 66.0988 3.92992C66.2747 4.18786 66.4519 4.44524 66.6174 4.71004Z" fill="white"/>
<path d="M73.1513 5.67197C73.3189 5.85127 73.5735 6.07241 73.6126 6.09665C73.8799 6.262 74.1837 6.31943 74.442 6.50837C74.7428 6.72875 74.984 7.02147 75.0812 7.38451C75.1672 7.70599 75.2422 8.03034 75.3201 8.35359C75.3277 8.38519 75.32 8.41934 75.3188 8.49284C75.243 8.38492 75.1802 8.31519 75.1405 8.2341C75.0201 7.98643 74.9259 7.72443 74.7866 7.48754C74.7006 7.34159 74.5526 7.23971 74.433 7.12354C74.3865 7.19368 74.3995 7.25194 74.399 7.33663C74.3986 7.43499 74.3878 7.53296 74.3673 7.62879C74.3265 7.8202 74.2468 8.00243 74.1321 8.15934C74.01 8.32644 73.8493 8.46404 73.6667 8.56144C73.4751 8.66373 73.2587 8.7066 73.058 8.78832C72.9042 8.85073 72.7498 8.91175 72.6036 8.9873C72.34 9.12263 72.2293 9.37558 72.137 9.63881C72.1202 9.68689 72.1092 9.73755 72.0948 9.79018C72.2998 9.69321 72.4832 9.58867 72.7059 9.52707C72.9279 9.46559 73.1561 9.42765 73.3823 9.38303C73.7549 9.30904 74.1358 9.20955 74.4284 8.97212C74.5437 8.8787 74.6843 8.78061 74.8241 8.90659C74.747 9.05648 74.6675 9.20258 74.5476 9.32253C74.5438 9.32787 74.5392 9.33271 74.5354 9.3378C74.2846 9.64933 73.8073 9.61664 73.4473 9.68077C73.0429 9.75296 72.6453 9.86614 72.2735 10.0365C72.2215 10.0603 72.1701 10.0852 72.1192 10.1112C71.9078 10.2193 71.7073 10.3465 71.5132 10.4822C71.4141 10.5515 71.3168 10.6233 71.2202 10.6958C71.1391 10.7568 70.9967 10.8295 70.944 10.9137C70.9725 10.933 71.0365 10.9059 71.0679 10.8941C71.2725 10.8169 71.4722 10.7249 71.6814 10.6625C72.1542 10.5211 72.6287 10.3831 73.1027 10.2455C73.5692 10.1101 74.0509 10.0603 74.5277 9.96917C75.0178 9.87569 75.5148 9.7168 75.8699 9.37231C76.2251 9.02781 76.3983 8.45728 76.166 8.00659C75.8476 7.38937 75.4381 6.76966 74.9804 6.24516C74.5089 5.70453 73.7521 4.96657 73.0112 5.44398C72.9771 5.4666 73.0476 5.56116 73.1513 5.67197Z" fill="white"/>
<path d="M68.4197 8.21351C68.6141 8.74905 68.8376 9.27629 69.064 9.80355C69.1389 9.97747 69.2386 10.1538 69.3647 10.2993C69.4859 10.4391 69.6314 10.5504 69.8032 10.6051C70.0418 10.6808 70.289 10.632 70.5081 10.5512C70.8569 10.4233 71.1671 10.2138 71.4148 9.94632C71.5918 9.75529 71.9693 9.33006 71.9164 9.02381C71.893 8.88834 71.813 8.91882 71.6756 8.89069C71.1623 8.78523 70.6774 8.53795 70.1882 8.33402C69.984 8.24874 68.2452 7.73524 68.4197 8.21351Z" fill="white"/>
<path d="M76.6298 8.04795C76.6122 7.96847 76.5842 7.89506 76.5558 7.81938C76.5462 7.80359 76.5365 7.78797 76.5257 7.77263C76.5219 7.7678 76.5186 7.76244 76.5151 7.75757C76.5616 7.85088 76.6002 7.94892 76.6236 8.05451C76.6716 8.27234 76.6203 8.50187 76.5151 8.72726C76.518 8.72247 76.5204 8.71726 76.5234 8.71229C76.6249 8.49023 76.6772 8.26199 76.6298 8.04795Z" fill="white"/>
<path d="M68.4179 8.27816C68.4984 8.28337 68.5876 8.25641 68.6677 8.24671C68.9718 8.2099 69.2912 8.19272 69.5911 8.23666C69.8555 8.27551 70.1089 8.40143 70.3655 8.47897C70.917 8.64652 71.5105 8.75171 72.0959 8.61063C72.5162 8.50938 72.9041 8.28777 73.2644 8.03822C73.4509 7.90909 73.6384 7.76423 73.7438 7.5642C73.8432 7.37597 73.8297 6.75968 73.5071 6.80404C73.3002 6.83266 73.2126 7.22019 73.0949 7.35628C72.8619 7.62525 72.5483 7.82278 72.2177 7.93986C71.6948 8.12537 71.1349 8.13016 70.5922 8.09825C70.1835 8.07433 69.7764 8.02994 69.3652 8.03147C69.0097 8.03298 68.5783 8.0001 68.2727 8.24245C68.2892 8.22958 68.3843 8.27446 68.407 8.27674C68.4103 8.27757 68.4139 8.278 68.4179 8.27816Z" fill="white"/>
</svg>
