<svg width="840" height="90" viewBox="0 0 840 90" fill="none" xmlns="http://www.w3.org/2000/svg">
<g filter="url(#filter0_d)">
<path d="M39.1186 42.43C45.8286 40.89 57.8186 36.16 57.8186 22.74C57.8186 3.92999 34.7186 4.59 34.7186 4.59H3.03855V6.13C3.03855 6.13 12.3886 5.69 12.3886 14.49V74.77C12.3886 83.57 2.81856 82.8 2.81856 82.8V85H36.5886C40.9886 85 45.3886 84.12 49.4586 82.47C56.0586 79.72 63.6486 74 63.6486 62.45C63.6486 45.51 44.8386 42.87 39.1186 42.43ZM34.7186 6.68C37.7986 7.23 40.6586 8.54999 42.7486 10.86C43.8486 11.96 44.6186 13.28 45.2786 14.71C46.2686 17.24 46.9286 20.54 46.9286 24.83C46.9286 32.42 44.0686 36.82 40.6586 39.35C38.2386 41.22 35.2686 42.1 32.1886 42.1H22.2886V13.39C22.2886 9.43 25.4786 7.12 28.9986 6.56999C30.8686 6.35 32.8486 6.35 34.7186 6.68ZM38.8986 81.59L37.7986 81.92C36.2586 82.25 34.8286 82.47 33.3986 82.58C31.9686 82.69 30.4286 82.8 28.9986 82.69C28.4486 82.58 27.8986 82.58 27.3486 82.36C24.8186 81.59 22.9486 79.94 22.3986 77.08C22.2886 76.53 22.2886 75.98 22.2886 75.43V44.3H36.8086C38.6786 44.3 52.5386 43.86 52.3186 64.65C52.2086 75.43 45.4986 79.83 38.8986 81.59ZM139.537 61.13V85H81.2365V83.46C81.2365 83.46 86.5165 83.68 89.2665 80.16C90.0365 79.06 90.5865 77.52 90.6965 75.65V70.81V70.59V9.21C90.6965 8.54999 90.5865 7.89 90.4765 7.23C90.2565 6.24 89.8165 5.36 89.2665 4.59L100.597 11.74V14.16V14.38V75.65C100.597 76.09 100.597 76.53 100.707 76.86C100.927 78.29 101.477 79.28 102.137 80.16C104.337 82.58 108.077 82.8 109.507 82.8H110.057H121.607C134.917 82.8 136.897 71.25 136.897 61.13H139.537ZM228.904 83.13C228.354 83.02 227.804 82.8 227.254 82.47C222.524 79.61 220.654 73.78 218.674 68.94L213.724 56.18C211.744 51.12 209.874 46.17 208.004 41.11L202.394 26.26C200.854 22.3 199.424 18.34 197.994 14.38C197.114 12.29 196.344 10.09 195.464 7.99999L195.354 7.55999L182.044 4.7C182.814 5.25 183.474 5.91 184.024 6.79C184.464 7.34 184.684 7.89 185.014 8.54999L187.544 15.26L174.894 48.48L164.664 75.54C160.814 83.02 156.084 83.24 156.084 83.24V85H178.084V83.24C178.084 83.24 169.834 83.68 168.184 77.85C167.744 76.2 167.744 74.11 168.514 71.47L173.464 58.38L174.894 54.53H202.724L204.154 58.38L209.324 71.91C209.764 73.01 209.984 73.89 210.094 74.77C211.414 83.68 202.394 83.24 202.394 83.24V85H229.454V83.24L228.904 83.13ZM175.774 52.33L177.204 48.48L188.644 18.34L188.754 18.01L200.414 48.48L201.844 52.33H175.774ZM303.08 70.7V57.72H300.11C300.11 57.72 299.56 72.24 291.86 78.73C290.32 80.05 288.45 80.93 286.69 81.81C284.93 82.58 283.06 83.24 281.08 83.79C277.45 84.67 273.71 84.78 270.08 83.68C267.11 82.8 264.58 81.26 262.27 79.28C260.07 77.41 258.31 74.99 256.77 72.46C255.34 69.93 254.13 67.29 253.14 64.54C253.03 64.1 252.81 63.77 252.7 63.33C250.06 55.41 249.18 47.05 249.95 38.8C252.26 12.95 264.03 7.23 267.77 6.01999C269.97 5.46999 272.28 5.14 274.7 5.14C278.66 5.14 282.62 6.01999 286.25 7.78C289.88 9.43 293.07 11.85 295.27 15.26C295.82 16.14 296.37 17.02 296.81 17.9C298.02 20.32 298.79 22.96 299.34 25.6C299.56 27.14 299.78 28.68 299.89 30.22V30.55H302.64L302.53 18.89L302.86 4.59H300.44C300.44 4.59 300.11 13.72 295.38 10.97C295.05 10.86 294.72 10.64 294.5 10.42C288.67 5.57999 281.74 2.93999 274.7 2.93999H272.61C272.61 2.93999 238.18 3.6 238.18 46.28C238.18 64.32 247.31 86.76 274.37 86.76H274.7C281.96 86.76 289.11 84.01 294.94 79.17C300.55 74.77 300.88 85 300.88 85H303.3L303.08 70.7ZM389.865 82.91V85H365.115V83.02C365.115 83.02 372.155 83.24 369.625 78.4L349.055 48.81C347.295 46.39 344.545 44.74 341.575 44.41C341.575 44.41 341.465 44.3 341.355 44.3H340.145V75.65C340.255 77.52 340.805 78.95 341.575 80.05C344.215 83.68 349.605 83.46 349.605 83.46V85H320.895V83.46C320.895 83.46 326.175 83.68 328.815 80.05C329.585 79.06 330.025 77.85 330.245 76.2V70.81V70.59V9.21C330.245 8.54999 330.135 7.89 330.025 7.23C329.805 6.13 329.365 5.25 328.815 4.59L340.145 11.74V42.1H340.365C340.365 42.1 341.135 42.1 342.345 41.88C347.075 41.22 351.255 38.69 354.115 34.84L368.415 15.7C374.575 6.13 362.915 6.56999 362.915 6.56999V4.59H385.685V6.35C385.685 6.35 384.585 6.35 383.045 6.68C379.195 7.45 375.785 9.64999 373.475 12.73L354.005 38.69L380.185 76.31C385.245 82.58 389.865 82.91 389.865 82.91ZM470.397 4.59V28.46H467.757C467.757 18.34 465.777 6.79 452.577 6.79H443.887V75.43V75.98V80.38C443.887 81.04 443.997 81.7 444.107 82.36C444.437 83.35 444.767 84.23 445.317 85L433.987 77.85V18.89C433.987 18.78 433.987 18.78 433.987 18.78V18.56V6.79H425.407C412.097 6.79 410.117 18.34 410.117 28.46H407.477V4.59H470.397ZM555.363 77.74C555.143 77.08 555.033 76.31 555.033 75.54V67.4V66.63V11.85L543.703 4.7C543.703 4.81 543.813 4.81 543.923 4.92V5.02999C544.033 5.14 544.033 5.25 544.143 5.36V5.46999C544.253 5.46999 544.253 5.57999 544.253 5.69C544.363 5.69 544.363 5.8 544.363 5.8V5.91C544.473 5.91 544.473 6.01999 544.473 6.01999V6.13L544.583 6.24C544.583 6.35 544.583 6.45999 544.693 6.56999C544.693 6.56999 544.693 6.68 544.693 6.79C544.803 6.9 544.803 6.9 544.803 7.00999C544.803 7.12 544.913 7.34 544.913 7.45C545.133 8.44 545.133 9.64999 545.133 10.64V14.71V18.56V43.75H507.293V11.85L495.963 4.7C495.963 4.81 496.073 4.81 496.183 4.92V5.02999C496.293 5.14 496.293 5.25 496.403 5.36V5.46999C496.513 5.46999 496.513 5.57999 496.513 5.69C496.623 5.69 496.623 5.8 496.623 5.8C496.623 5.8 496.623 5.8 496.623 5.91L496.733 6.01999V6.13L496.843 6.24C496.843 6.35 496.843 6.45999 496.953 6.56999C496.953 6.56999 496.953 6.68 496.953 6.79C497.063 6.9 497.063 6.9 497.063 7.00999C497.063 7.12 497.173 7.34 497.173 7.45C497.393 8.44 497.393 9.64999 497.393 10.64V14.71V66.63C497.393 66.63 497.613 69.93 497.393 74.66V75.54C497.393 76.09 497.393 76.53 497.283 76.97C497.173 77.3 497.173 77.52 497.063 77.74C495.413 83.79 488.043 83.46 488.043 83.46V85H516.643V83.46C516.643 83.46 507.623 83.9 507.293 75.65V45.95H545.133V75.43C545.133 75.98 545.133 76.42 545.023 76.97V77.08C543.703 83.79 535.783 83.46 535.783 83.46V85H564.383V83.46C564.383 83.46 557.013 83.79 555.363 77.74ZM616.14 3.38C596.34 3.38 580.28 22.19 580.28 45.51C580.28 68.72 596.34 87.64 616.14 87.64C635.94 87.64 652 68.72 652 45.51C652 22.19 635.94 3.38 616.14 3.38ZM616.14 84.78C602.06 84.78 590.62 66.96 590.62 44.96C590.62 22.96 602.06 5.14 616.14 5.14C630.33 5.14 641.77 22.96 641.77 44.96C641.77 66.96 630.33 84.78 616.14 84.78ZM747.835 83.57C745.635 83.79 742.995 83.24 741.015 82.58L739.365 82.03C738.595 81.81 738.045 81.59 738.045 81.48H737.935C736.395 80.71 734.965 79.5 733.865 78.4C733.095 77.74 732.435 76.97 731.775 76.2C731.115 75.54 730.565 74.88 729.905 74.22L727.815 71.8C726.055 69.71 724.515 67.4 722.975 65.09C720.995 62.23 719.235 59.37 717.365 56.4C715.495 53.43 713.735 50.46 711.975 47.49C711.315 46.5 710.765 45.51 710.215 44.52C717.695 41.88 725.835 36.27 725.835 23.95C725.835 3.38 697.785 4.59 697.785 4.59H667.975V6.13C667.975 6.13 673.145 5.91 675.895 9.43C676.335 10.09 676.775 10.97 676.995 11.85C677.215 12.62 677.325 13.28 677.325 14.05V18.78C677.325 18.78 677.325 18.78 677.325 18.89V77.85L688.655 85C688.105 84.23 687.665 83.35 687.445 82.36C687.225 81.7 687.225 81.04 687.225 80.38V75.54V46.72H700.095C700.755 47.82 704.275 54.09 708.675 61.24C710.765 64.65 712.965 67.95 715.165 71.25C716.815 73.67 718.465 75.98 720.335 78.29C720.775 78.84 721.215 79.39 721.765 79.83C723.745 82.03 726.165 83.46 729.025 84.23C730.895 84.78 732.875 85 734.855 85H746.405C749.705 84.78 747.835 83.57 747.835 83.57ZM697.895 44.52H687.225V13.94C687.335 11.96 687.885 10.53 688.765 9.43C691.405 6.24 696.465 6.56999 697.785 6.56999C715.825 6.56999 715.055 24.39 715.055 26.26C715.055 44.41 699.105 44.52 697.895 44.52ZM815.334 4.59V6.13C815.334 6.13 825.124 5.8 825.564 14.05V67.29L785.084 4.59H765.944V6.45999C765.944 6.45999 774.744 5.8 775.294 13.61V75.43C775.294 76.09 775.294 76.75 775.184 77.3C773.644 83.79 765.944 83.46 765.944 83.46V85H786.954V83.46C786.954 83.46 779.254 83.79 777.714 77.41C777.604 76.75 777.494 76.09 777.494 75.43V11.08L825.234 85H827.764V13.94C828.204 5.8 837.224 6.13 837.224 6.13V4.59H815.334Z" fill="white"/>
</g>
<defs>
<filter id="filter0_d" x="0.818542" y="0.939995" width="838.405" height="88.7" filterUnits="userSpaceOnUse" color-interpolation-filters="sRGB">
<feFlood flood-opacity="0" result="BackgroundImageFix"/>
<feColorMatrix in="SourceAlpha" type="matrix" values="0 0 0 0 0 0 0 0 0 0 0 0 0 0 0 0 0 0 127 0"/>
<feOffset/>
<feGaussianBlur stdDeviation="1"/>
<feColorMatrix type="matrix" values="0 0 0 0 1 0 0 0 0 1 0 0 0 0 1 0 0 0 1 0"/>
<feBlend mode="normal" in2="BackgroundImageFix" result="effect1_dropShadow"/>
<feBlend mode="normal" in="SourceGraphic" in2="effect1_dropShadow" result="shape"/>
</filter>
</defs>
</svg>
