<svg width="58" height="60" viewBox="0 0 58 60" fill="none" xmlns="http://www.w3.org/2000/svg">
<path d="M25 55L22 48.5" stroke="white"/>
<path d="M16 57.5L20.5 54" stroke="white"/>
<path d="M8.5 45L11 38" stroke="white"/>
<path d="M4 26L10.5 23" stroke="white"/>
<path d="M5 22L1 17" stroke="white"/>
<path d="M13.5 9.5L21 12" stroke="white"/>
<path d="M16 8L18 2.5" stroke="white"/>
<path d="M7 43L1.5 41" stroke="white"/>
<circle cx="29" cy="30" r="25.5" stroke="white"/>
<path d="M44.5 50.5L37 48" stroke="white"/>
<path d="M40 57.5L42.5 51.5" stroke="white"/>
<path d="M33 5L36.5 12.5" stroke="white"/>
<path d="M51 16.8228L56.9097 18.8547" stroke="white"/>
<path d="M49.5626 15L47 22" stroke="white"/>
<path d="M53 38L57 43.5" stroke="white"/>
<path d="M54.5 33L47.5 36.5" stroke="white"/>
<path d="M37 6L43 2" stroke="white"/>
<path d="M10.9721 12.1412L8.97208 10.1412M8.97208 10.1412C8.97208 10.1412 9.43147 7.63424 8.97208 6.14122C8.4781 4.53579 7.89499 3.53382 6.47208 2.64122C4.80973 1.59841 1.47208 2.14122 1.47208 2.14122C1.47208 2.14122 0.4099 5.77435 1.47208 7.64122C2.22625 8.96673 3.05189 9.58549 4.47208 10.1412C6 10.7391 8.97208 10.1412 8.97208 10.1412Z" stroke="white"/>
<path d="M46.525 11.4922L48.417 9.38967M48.417 9.38967C48.417 9.38967 50.9446 9.71643 52.4114 9.17906C53.9886 8.60124 54.9585 7.96619 55.7749 6.49825C56.7288 4.7833 56.011 1.47886 56.011 1.47886C56.011 1.47886 52.3269 0.609444 50.5186 1.76844C49.2346 2.59136 48.6602 3.44843 48.18 4.89591C47.6634 6.45319 48.417 9.38967 48.417 9.38967Z" stroke="white"/>
<path d="M47 47.3301L49.0651 49.2628M49.0651 49.2628C49.0651 49.2628 48.689 51.7836 49.1976 53.2606C49.7444 54.8488 50.3604 55.8309 51.8121 56.6759C53.508 57.6631 56.8259 57.0101 56.8259 57.0101C56.8259 57.0101 57.7672 53.3438 56.6438 51.5132C55.8461 50.2133 55.0005 49.6223 53.5627 49.1138C52.0158 48.5669 49.0651 49.2628 49.0651 49.2628Z" stroke="white"/>
<path d="M12.1412 49L10.1412 51M10.1412 51C10.1412 51 7.63424 50.5406 6.14122 51C4.53579 51.494 3.53382 52.0771 2.64122 53.5C1.59841 55.1623 2.14122 58.5 2.14122 58.5C2.14122 58.5 5.77435 59.5622 7.64122 58.5C8.96673 57.7458 9.58549 56.9202 10.1412 55.5C10.7391 53.9721 10.1412 51 10.1412 51Z" stroke="white"/>
</svg>
