<svg width="155" height="18" viewBox="0 0 155 18" fill="none" xmlns="http://www.w3.org/2000/svg">
<path d="M1 10.2438C70.299 12.8189 116.5 4.13892 202 10.6389" stroke="white"/>
<path d="M117 8.24377L121 13.2438" stroke="white"/>
<path d="M84 4.24376L89 9.24376" stroke="white"/>
<path d="M29.6011 5.74217L34.5668 10.7741" stroke="white"/>
<path d="M143.237 8.4875L141.85 6.88261M141.85 6.88261C141.85 6.88261 139.902 6.5167 138.894 6.16624C137.886 5.81578 137.56 5.42365 137.008 4.52506C136.363 3.47527 136.84 1.28838 136.84 1.28838C136.84 1.28838 138.839 0.79302 140.078 1.52393C140.957 2.0429 141.284 2.47547 141.605 3.35555C141.95 4.30239 141.85 6.88261 141.85 6.88261Z" stroke="white"/>
<path d="M60.8143 9.96494L61.7347 11.0645M61.7347 11.0645C61.7347 11.0645 63.6726 11.4809 64.6709 11.8574C65.6693 12.2339 65.9847 12.6344 66.5135 13.547C67.1314 14.6132 66.5976 16.7869 66.5976 16.7869C66.5976 16.7869 64.5865 17.2302 63.3671 16.4674C62.5012 15.9258 62.1854 15.4849 61.8878 14.5968C61.5676 13.6413 61.7347 11.0645 61.7347 11.0645Z" stroke="white"/>
<path d="M2.86157 10.2438L8.00003 14.9973" stroke="white"/>
</svg>
