<svg width="203" height="19" viewBox="0 0 203 19" fill="none" xmlns="http://www.w3.org/2000/svg">
<path d="M202 11C132.701 13.5751 86.5 4.89515 1 11.3951" stroke="white" stroke-width="1.5"/>
<path d="M28 10L33 15" stroke="white" stroke-width="1.5"/>
<path d="M86 9L82 14" stroke="white" stroke-width="1.5"/>
<path d="M119 5L114 10" stroke="white" stroke-width="1.5"/>
<path d="M173.399 6.49841L168.433 11.5303" stroke="white" stroke-width="1.5"/>
<path d="M59.7631 9.24373L61.1504 7.63884M61.1504 7.63884C61.1504 7.63884 63.0984 7.27293 64.1062 6.92247C65.1139 6.57201 65.4396 6.17988 65.992 5.28129C66.6373 4.2315 66.1601 2.0446 66.1601 2.0446C66.1601 2.0446 64.1613 1.54925 62.9224 2.28016C62.0428 2.79913 61.7156 3.2317 61.3951 4.11178C61.0502 5.05862 61.1504 7.63884 61.1504 7.63884Z" stroke="white" stroke-width="1.5"/>
<path d="M142.186 10.7212L141.265 11.8208M141.265 11.8208C141.265 11.8208 139.327 12.2371 138.329 12.6136C137.331 12.9901 137.015 13.3906 136.486 14.3032C135.869 15.3694 136.402 17.5432 136.402 17.5432C136.402 17.5432 138.413 17.9865 139.633 17.2237C140.499 16.682 140.815 16.2411 141.112 15.353C141.432 14.3975 141.265 11.8208 141.265 11.8208Z" stroke="white" stroke-width="1.5"/>
<path d="M200.138 11L195 15.7535" stroke="white" stroke-width="1.5"/>
<path d="M2 6L7.18748 10.7" stroke="white" stroke-width="1.5"/>
</svg>
