<svg width="9" height="12" viewBox="0 0 9 12" fill="none" xmlns="http://www.w3.org/2000/svg">
<path d="M2.76581 9.066H5.93381V9.84H2.76581V12H1.73981V9.84H0.317813V9.066H1.73981V7.338H0.317813V6.492H1.73981V0.0299996H4.18781C5.65181 0.0299996 6.76781 0.33 7.53581 0.93C8.30381 1.518 8.68781 2.418 8.68781 3.63C8.68781 4.914 8.27981 5.856 7.46381 6.456C6.65981 7.044 5.55581 7.338 4.15181 7.338H2.76581V9.066ZM2.76581 0.875999V6.492H4.15181C5.25581 6.492 6.10781 6.276 6.70781 5.844C7.31981 5.412 7.62581 4.68 7.62581 3.648C7.62581 2.664 7.33181 1.956 6.74381 1.524C6.16781 1.092 5.31581 0.875999 4.18781 0.875999H2.76581Z" fill="white"/>
</svg>
