<svg width="38" height="38" viewBox="0 0 38 38" fill="none" xmlns="http://www.w3.org/2000/svg">
<g opacity="0.5">
<path fill-rule="evenodd" clip-rule="evenodd" d="M17.8124 23.7498C14.5385 23.7498 11.875 21.0863 11.875 17.8124C11.875 14.5385 14.5385 11.875 17.8124 11.875C21.0863 11.875 23.7498 14.5385 23.7498 17.8124C23.7498 21.0863 21.0863 23.7498 17.8124 23.7498ZM28.1518 26.4727L24.4563 22.801C24.454 22.7986 24.4516 22.7986 24.4492 22.7962C25.4966 21.4045 26.1247 19.6827 26.1247 17.8124C26.1247 13.2299 22.3949 9.5 17.8124 9.5C13.2287 9.5 9.5 13.2299 9.5 17.8124C9.5 22.3949 13.2287 26.1247 17.8124 26.1247C19.6827 26.1247 21.4045 25.4966 22.795 24.4504C22.7974 24.4528 22.7974 24.4551 22.7998 24.4575L26.4727 28.1518C26.7042 28.3833 27.0082 28.4997 27.3122 28.4997C27.6162 28.4997 27.9202 28.3833 28.1518 28.1518C28.6161 27.6875 28.6161 26.937 28.1518 26.4727Z" fill="white"/>
</g>
</svg>
