<svg width="124" height="12" viewBox="0 0 124 12" fill="none" xmlns="http://www.w3.org/2000/svg">
<path d="M123 5.14716C80.9379 3.58415 52.8955 8.85261 0.999998 4.90737" stroke="white"/>
<path d="M17.3881 5.75439L20.4229 2.71957" stroke="white"/>
<path d="M52.592 6.36133L50.1642 3.3265" stroke="white"/>
<path d="M72.6219 8.78906L69.5871 5.75424" stroke="white"/>
<path d="M105.64 7.87939L102.626 4.82519" stroke="white"/>
<path d="M36.6672 6.21318L37.5092 7.18729M37.5092 7.18729C37.5092 7.18729 38.6916 7.40939 39.3032 7.6221C39.9149 7.83482 40.1126 8.07283 40.4479 8.61824C40.8396 9.25543 40.5499 10.5828 40.5499 10.5828C40.5499 10.5828 39.3367 10.8835 38.5848 10.4398C38.0509 10.1248 37.8523 9.86227 37.6577 9.32809C37.4484 8.75339 37.5092 7.18729 37.5092 7.18729Z" stroke="white"/>
<path d="M86.6948 5.31645L86.1362 4.64903M86.1362 4.64903C86.1362 4.64903 84.96 4.39631 84.354 4.16779C83.748 3.93926 83.5566 3.6962 83.2356 3.14227C82.8606 2.49513 83.1846 1.17573 83.1846 1.17573C83.1846 1.17573 84.4052 0.906661 85.1454 1.36967C85.6709 1.69842 85.8626 1.96604 86.0433 2.50509C86.2376 3.08503 86.1362 4.64903 86.1362 4.64903Z" stroke="white"/>
<path d="M121.87 5.14697L118.751 2.26173" stroke="white"/>
<path d="M1.60699 8.18213L4.75561 5.32939" stroke="white"/>
</svg>
